<svg version="1.1" viewBox="0.0 60.0 900.0 430.0" fill="none" stroke="none" stroke-linecap="square" stroke-miterlimit="10" xmlns:xlink="http://www.w3.org/1999/xlink" xmlns="http://www.w3.org/2000/svg"><clipPath id="p.0"><path d="m0 0l1280.0 0l0 960.0l-1280.0 0l0 -960.0z" clip-rule="nonzero"/></clipPath><g clip-path="url(#p.0)"><path fill="#000000" fill-opacity="0.0" d="m0 0l1280.0 0l0 960.0l-1280.0 0z" fill-rule="evenodd"/><path fill="#93c47d" d="m340.6719 240.07285l11.943665 0l0 17.927917l-11.943665 0z" fill-rule="evenodd"/><path fill="#759c63" d="m352.61557 240.07285l12.119324 -12.119324l0 17.927917l-12.119324 12.119324z" fill-rule="evenodd"/><path fill="#a8cf97" d="m340.6719 240.07285l12.119324 -12.119324l11.943665 0l-12.119324 12.119324z" fill-rule="evenodd"/><path fill="#000000" fill-opacity="0.0" d="m340.6719 240.07285l12.119324 -12.119324l11.943665 0l0 17.927917l-12.119324 12.119324l-11.943665 0zm0 0l11.943665 0l12.119324 -12.119324m-12.119324 12.119324l0 17.927917" fill-rule="evenodd"/><path stroke="#595959" stroke-width="1.0" stroke-linejoin="round" stroke-linecap="butt" d="m340.6719 240.07285l12.119324 -12.119324l11.943665 0l0 17.927917l-12.119324 12.119324l-11.943665 0zm0 0l11.943665 0l12.119324 -12.119324m-12.119324 12.119324l0 17.927917" fill-rule="evenodd"/><path fill="#000000" fill-opacity="0.0" d="m223.51653 234.09325c0 5.907959 -0.5614319 19.05275 6.548065 16.976013c7.0360107 -2.0552673 1.6171112 -15.559387 -5.6746063 -16.976013" fill-rule="evenodd"/><path stroke="#595959" stroke-width="1.0" stroke-linejoin="round" stroke-linecap="butt" d="m223.51653 234.09325c0 5.907959 -0.5614319 19.05275 6.548065 16.976013c7.0360107 -2.0552673 1.6171112 -15.559387 -5.6746063 -16.976013" fill-rule="evenodd"/><path fill="#000000" fill-opacity="0.0" d="m200.21413 234.09325c0 5.907959 -0.5614319 19.05275 6.548065 16.976013c7.0360107 -2.0552673 1.6171112 -15.559387 -5.6746063 -16.976013" fill-rule="evenodd"/><path stroke="#595959" stroke-width="1.0" stroke-linejoin="round" stroke-linecap="butt" d="m200.21413 234.09325c0 5.907959 -0.5614319 19.05275 6.548065 16.976013c7.0360107 -2.0552673 1.6171112 -15.559387 -5.6746063 -16.976013" fill-rule="evenodd"/><path fill="#f9ffc0" d="m209.81644 90.60876l10.917267 0l0 17.25727l-10.917267 0z" fill-rule="evenodd"/><path stroke="#595959" stroke-width="1.0" stroke-linejoin="round" stroke-linecap="butt" d="m209.81644 90.60876l10.917267 0l0 17.25727l-10.917267 0z" fill-rule="evenodd"/><path fill="#f9ffc0" d="m199.99911 80.1188l0 0c0 -9.802834 6.838852 -17.749592 15.274994 -17.749592c8.436142 0 15.274994 7.9467583 15.274994 17.749592c0 9.802826 -6.838852 17.749588 -15.274994 17.749588c-8.436142 0 -15.274994 -7.946762 -15.274994 -17.749588z" fill-rule="evenodd"/><path fill="#c7cb99" d="m208.7893 74.810356c0 -1.0211334 0.7123718 -1.8489227 1.5911407 -1.8489227c0.8787689 0 1.591156 0.8277893 1.591156 1.8489227c0 1.0211258 -0.7123871 1.8489151 -1.591156 1.8489151c-0.8787689 0 -1.5911407 -0.8277893 -1.5911407 -1.8489151m9.787308 0c0 -1.0211334 0.7123871 -1.8489227 1.591156 -1.8489227c0.87875366 0 1.5911407 0.8277893 1.5911407 1.8489227c0 1.0211258 -0.7123871 1.8489151 -1.5911407 1.8489151c-0.8787689 0 -1.591156 -0.8277893 -1.591156 -1.8489151" fill-rule="evenodd"/><path fill="#000000" fill-opacity="0.0" d="m206.99496 91.16306q8.279144 -6.607109 16.538956 0" fill-rule="evenodd"/><path fill="#000000" fill-opacity="0.0" d="m199.99911 80.1188l0 0c0 -9.802834 6.838852 -17.749592 15.274994 -17.749592c8.436142 0 15.274994 7.9467583 15.274994 17.749592c0 9.802826 -6.838852 17.749588 -15.274994 17.749588c-8.436142 0 -15.274994 -7.946762 -15.274994 -17.749588z" fill-rule="evenodd"/><path stroke="#595959" stroke-width="1.0" stroke-linejoin="round" stroke-linecap="butt" d="m208.7893 74.810356c0 -1.0211334 0.7123718 -1.8489227 1.5911407 -1.8489227c0.8787689 0 1.591156 0.8277893 1.591156 1.8489227c0 1.0211258 -0.7123871 1.8489151 -1.591156 1.8489151c-0.8787689 0 -1.5911407 -0.8277893 -1.5911407 -1.8489151m9.787308 0c0 -1.0211334 0.7123871 -1.8489227 1.591156 -1.8489227c0.87875366 0 1.5911407 0.8277893 1.5911407 1.8489227c0 1.0211258 -0.7123871 1.8489151 -1.5911407 1.8489151c-0.8787689 0 -1.591156 -0.8277893 -1.591156 -1.8489151" fill-rule="evenodd"/><path stroke="#595959" stroke-width="1.0" stroke-linejoin="round" stroke-linecap="butt" d="m206.99496 91.16306q8.279144 -6.607109 16.538956 0" fill-rule="evenodd"/><path stroke="#595959" stroke-width="1.0" stroke-linejoin="round" stroke-linecap="butt" d="m199.99911 80.1188l0 0c0 -9.802834 6.838852 -17.749592 15.274994 -17.749592c8.436142 0 15.274994 7.9467583 15.274994 17.749592c0 9.802826 -6.838852 17.749588 -15.274994 17.749588c-8.436142 0 -15.274994 -7.946762 -15.274994 -17.749588z" fill-rule="evenodd"/><path fill="#eeeeee" d="m199.77835 165.8171l-2.1826782 71.57193l12.656525 2.407425l5.238846 -51.124695l6.1084595 52.32576l14.839233 -1.804245l-3.9276886 -75.78096z" fill-rule="evenodd"/><path stroke="#595959" stroke-width="1.0" stroke-linejoin="round" stroke-linecap="butt" d="m199.77835 165.8171l-2.1826782 71.57193l12.656525 2.407425l5.238846 -51.124695l6.1084595 52.32576l14.839233 -1.804245l-3.9276886 -75.78096z" fill-rule="evenodd"/><path fill="#eeeeee" d="m208.65192 98.991234l6.3908386 4.929718l7.7601776 -4.437393l11.412369 1.479126l20.539871 37.967278l-9.585266 6.903351l-11.412384 -23.66829l0.91355896 47.33441l-37.42955 0.49447632l0.91156006 -48.321213l-10.954605 24.160614l-9.585266 -6.903351l17.345444 -35.501335z" fill-rule="evenodd"/><path stroke="#595959" stroke-width="1.0" stroke-linejoin="round" stroke-linecap="butt" d="m208.65192 98.991234l6.3908386 4.929718l7.7601776 -4.437393l11.412369 1.479126l20.539871 37.967278l-9.585266 6.903351l-11.412384 -23.66829l0.91355896 47.33441l-37.42955 0.49447632l0.91156006 -48.321213l-10.954605 24.160614l-9.585266 -6.903351l17.345444 -35.501335z" fill-rule="evenodd"/><path fill="#000000" fill-opacity="0.0" d="m184.93913 142.87288c-0.5058594 6.5823975 -1.7450104 13.116043 -1.7450104 19.723206" fill-rule="evenodd"/><path stroke="#595959" stroke-width="1.0" stroke-linejoin="round" stroke-linecap="butt" d="m184.93913 142.87288c-0.5058594 6.5823975 -1.7450104 13.116043 -1.7450104 19.723206" fill-rule="evenodd"/><path fill="#000000" fill-opacity="0.0" d="m249.09528 143.36737c1.1034088 5.4022827 2.3600006 10.782257 3.056137 16.270447" fill-rule="evenodd"/><path stroke="#595959" stroke-width="1.0" stroke-linejoin="round" stroke-linecap="butt" d="m249.09528 143.36737c1.1034088 5.4022827 2.3600006 10.782257 3.056137 16.270447" fill-rule="evenodd"/><path fill="#000000" fill-opacity="0.0" d="m192.24597 97.86731l49.540543 0l0 35.499176l-49.540543 0z" fill-rule="evenodd"/><path fill="#000000" d="m203.31622 122.24981q0 -3.21875 0.65625 -5.171875q0.671875 -1.96875 1.96875 -3.03125q1.3125 -1.0625 3.296875 -1.0625q1.453125 0 2.546875 0.59375q1.109375 0.578125 1.828125 1.6875q0.71875 1.109375 1.125 2.703125q0.40625 1.578125 0.40625 4.28125q0 3.1875 -0.65625 5.15625q-0.65625 1.9531174 -1.96875 3.0312424q-1.296875 1.0625 -3.28125 1.0625q-2.625 0 -4.125 -1.890625q-1.796875 -2.2499924 -1.796875 -7.3593674zm2.296875 0q0 4.453125 1.03125 5.9374924q1.046875 1.484375 2.59375 1.484375q1.53125 0 2.578125 -1.484375q1.046875 -1.4843674 1.046875 -5.9374924q0 -4.484375 -1.046875 -5.953125q-1.046875 -1.46875 -2.609375 -1.46875q-1.53125 0 -2.453125 1.296875q-1.140625 1.65625 -1.140625 6.125z" fill-rule="nonzero"/><path fill="#000000" d="m217.35565 121.765434q0 -1.328125 0.671875 -2.25q0.671875 -0.9375 1.9375 -0.9375q1.171875 0 1.9375 0.828125q0.765625 0.828125 0.765625 2.453125q0 1.5625 -0.78125 2.421875q-0.765625 0.84375 -1.90625 0.84375q-1.125 0 -1.875 -0.828125q-0.75 -0.84375 -0.75 -2.53125zm2.65625 -2.140625q-0.5625 0 -0.953125 0.5q-0.375 0.484375 -0.375 1.796875q0 1.1875 0.375 1.671875q0.390625 0.484375 0.953125 0.484375q0.578125 0 0.953125 -0.484375q0.375 -0.5 0.375 -1.796875q0 -1.203125 -0.390625 -1.6875q-0.375 -0.484375 -0.9375 -0.484375zm0 12.015617l6.796875 -13.062492l1.234375 0l-6.765625 13.062492l-1.265625 0zm5.375 -3.359375q0 -1.3437424 0.65625 -2.2656174q0.671875 -0.921875 1.953125 -0.921875q1.171875 0 1.9375 0.828125q0.765625 0.828125 0.765625 2.4531174q0 1.5625 -0.78125 2.421875q-0.765625 0.84375 -1.90625 0.84375q-1.125 0 -1.875 -0.84375q-0.75 -0.84375 -0.75 -2.515625zm2.65625 -2.1406174q-0.578125 0 -0.953125 0.5q-0.375 0.484375 -0.375 1.7812424q0 1.1875 0.375 1.6875q0.390625 0.484375 0.9375 0.484375q0.59375 0 0.96875 -0.484375q0.375 -0.5 0.375 -1.796875q0 -1.2031174 -0.390625 -1.6874924q-0.375 -0.484375 -0.9375 -0.484375z" fill-rule="nonzero"/><path fill="#000000" fill-opacity="0.0" d="m322.24088 234.09325c0 5.907959 -0.5614319 19.05275 6.548065 16.976013c7.0360107 -2.0552673 1.617096 -15.559387 -5.6746216 -16.976013" fill-rule="evenodd"/><path stroke="#595959" stroke-width="1.0" stroke-linejoin="round" stroke-linecap="butt" d="m322.24088 234.09325c0 5.907959 -0.5614319 19.05275 6.548065 16.976013c7.0360107 -2.0552673 1.617096 -15.559387 -5.6746216 -16.976013" fill-rule="evenodd"/><path fill="#000000" fill-opacity="0.0" d="m298.93848 234.09325c0 5.907959 -0.5614319 19.05275 6.548065 16.976013c7.0360107 -2.0552673 1.617096 -15.559387 -5.6746216 -16.976013" fill-rule="evenodd"/><path stroke="#595959" stroke-width="1.0" stroke-linejoin="round" stroke-linecap="butt" d="m298.93848 234.09325c0 5.907959 -0.5614319 19.05275 6.548065 16.976013c7.0360107 -2.0552673 1.617096 -15.559387 -5.6746216 -16.976013" fill-rule="evenodd"/><path fill="#f9ffc0" d="m308.54077 90.60876l10.917267 0l0 17.25727l-10.917267 0z" fill-rule="evenodd"/><path stroke="#595959" stroke-width="1.0" stroke-linejoin="round" stroke-linecap="butt" d="m308.54077 90.60876l10.917267 0l0 17.25727l-10.917267 0z" fill-rule="evenodd"/><path fill="#f9ffc0" d="m298.72345 80.1188l0 0c0 -9.802834 6.838867 -17.749592 15.274994 -17.749592c8.436157 0 15.274994 7.9467583 15.274994 17.749592c0 9.802826 -6.8388367 17.749588 -15.274994 17.749588c-8.436127 0 -15.274994 -7.946762 -15.274994 -17.749588z" fill-rule="evenodd"/><path fill="#c7cb99" d="m307.51364 74.810356c0 -1.0211334 0.71240234 -1.8489227 1.591156 -1.8489227c0.87875366 0 1.591156 0.8277893 1.591156 1.8489227c0 1.0211258 -0.71240234 1.8489151 -1.591156 1.8489151c-0.87875366 0 -1.591156 -0.8277893 -1.591156 -1.8489151m9.787323 0c0 -1.0211334 0.7123718 -1.8489227 1.591156 -1.8489227c0.87875366 0 1.5911255 0.8277893 1.5911255 1.8489227c0 1.0211258 -0.7123718 1.8489151 -1.5911255 1.8489151c-0.8787842 0 -1.591156 -0.8277893 -1.591156 -1.8489151" fill-rule="evenodd"/><path fill="#000000" fill-opacity="0.0" d="m305.7193 90.02248q8.279144 -2.044754 16.53897 0" fill-rule="evenodd"/><path fill="#000000" fill-opacity="0.0" d="m298.72345 80.1188l0 0c0 -9.802834 6.838867 -17.749592 15.274994 -17.749592c8.436157 0 15.274994 7.9467583 15.274994 17.749592c0 9.802826 -6.8388367 17.749588 -15.274994 17.749588c-8.436127 0 -15.274994 -7.946762 -15.274994 -17.749588z" fill-rule="evenodd"/><path stroke="#595959" stroke-width="1.0" stroke-linejoin="round" stroke-linecap="butt" d="m307.51364 74.810356c0 -1.0211334 0.71240234 -1.8489227 1.591156 -1.8489227c0.87875366 0 1.591156 0.8277893 1.591156 1.8489227c0 1.0211258 -0.71240234 1.8489151 -1.591156 1.8489151c-0.87875366 0 -1.591156 -0.8277893 -1.591156 -1.8489151m9.787323 0c0 -1.0211334 0.7123718 -1.8489227 1.591156 -1.8489227c0.87875366 0 1.5911255 0.8277893 1.5911255 1.8489227c0 1.0211258 -0.7123718 1.8489151 -1.5911255 1.8489151c-0.8787842 0 -1.591156 -0.8277893 -1.591156 -1.8489151" fill-rule="evenodd"/><path stroke="#595959" stroke-width="1.0" stroke-linejoin="round" stroke-linecap="butt" d="m305.7193 90.02248q8.279144 -2.044754 16.53897 0" fill-rule="evenodd"/><path stroke="#595959" stroke-width="1.0" stroke-linejoin="round" stroke-linecap="butt" d="m298.72345 80.1188l0 0c0 -9.802834 6.838867 -17.749592 15.274994 -17.749592c8.436157 0 15.274994 7.9467583 15.274994 17.749592c0 9.802826 -6.8388367 17.749588 -15.274994 17.749588c-8.436127 0 -15.274994 -7.946762 -15.274994 -17.749588z" fill-rule="evenodd"/><path fill="#eeeeee" d="m298.5027 165.8171l-2.1826782 71.57193l12.656555 2.407425l5.2388306 -51.124695l6.1084595 52.32576l14.839233 -1.804245l-3.9277039 -75.78096z" fill-rule="evenodd"/><path stroke="#595959" stroke-width="1.0" stroke-linejoin="round" stroke-linecap="butt" d="m298.5027 165.8171l-2.1826782 71.57193l12.656555 2.407425l5.2388306 -51.124695l6.1084595 52.32576l14.839233 -1.804245l-3.9277039 -75.78096z" fill-rule="evenodd"/><path fill="#eeeeee" d="m307.37625 98.991234l6.3908386 4.929718l7.760193 -4.437393l11.4123535 1.479126l20.539886 37.967278l-9.585266 6.903351l-11.412384 -23.66829l0.9135437 47.33441l-37.429535 0.49447632l0.91156006 -48.321213l-10.95462 24.160614l-9.585266 -6.903351l17.345459 -35.501335z" fill-rule="evenodd"/><path stroke="#595959" stroke-width="1.0" stroke-linejoin="round" stroke-linecap="butt" d="m307.37625 98.991234l6.3908386 4.929718l7.760193 -4.437393l11.4123535 1.479126l20.539886 37.967278l-9.585266 6.903351l-11.412384 -23.66829l0.9135437 47.33441l-37.429535 0.49447632l0.91156006 -48.321213l-10.95462 24.160614l-9.585266 -6.903351l17.345459 -35.501335z" fill-rule="evenodd"/><path fill="#000000" fill-opacity="0.0" d="m283.66348 142.87288c-0.5058594 6.5823975 -1.7450256 13.116043 -1.7450256 19.723206" fill-rule="evenodd"/><path stroke="#595959" stroke-width="1.0" stroke-linejoin="round" stroke-linecap="butt" d="m283.66348 142.87288c-0.5058594 6.5823975 -1.7450256 13.116043 -1.7450256 19.723206" fill-rule="evenodd"/><path fill="#000000" fill-opacity="0.0" d="m347.8196 143.36737c1.1034241 5.4022827 2.3600159 10.782257 3.0561523 16.270447" fill-rule="evenodd"/><path stroke="#595959" stroke-width="1.0" stroke-linejoin="round" stroke-linecap="butt" d="m347.8196 143.36737c1.1034241 5.4022827 2.3600159 10.782257 3.0561523 16.270447" fill-rule="evenodd"/><path fill="#000000" fill-opacity="0.0" d="m286.93655 97.868385l59.01288 0l0 35.499184l-59.01288 0z" fill-rule="evenodd"/><path fill="#000000" d="m305.42114 127.34839l-1.875 0l0 -11.9375q-0.6875 0.640625 -1.78125 1.28125q-1.09375 0.640625 -1.96875 0.96875l0 -1.8125q1.5625 -0.734375 2.734375 -1.78125q1.1875 -1.0625 1.671875 -2.046875l1.21875 0l0 15.328125zm4.7991943 -7.53125q0 -2.703125 0.546875 -4.34375q0.5625 -1.65625 1.65625 -2.546875q1.109375 -0.90625 2.765625 -0.90625q1.234375 0 2.15625 0.5q0.9375 0.484375 1.53125 1.421875q0.609375 0.9375 0.953125 2.28125q0.34375 1.328125 0.34375 3.59375q0 2.6875 -0.5625 4.34375q-0.546875 1.640625 -1.640625 2.546875q-1.09375 0.90625 -2.78125 0.90625q-2.203125 0 -3.46875 -1.59375q-1.5 -1.90625 -1.5 -6.203125zm1.921875 0q0 3.765625 0.875 5.015625q0.890625 1.234375 2.171875 1.234375q1.296875 0 2.171875 -1.25q0.890625 -1.25 0.890625 -5.0q0 -3.765625 -0.890625 -5.0q-0.875 -1.25 -2.1875 -1.25q-1.296875 0 -2.0625 1.09375q-0.96875 1.40625 -0.96875 5.15625z" fill-rule="nonzero"/><path fill="#000000" d="m322.1289 118.64526q0 -1.234375 0.609375 -2.09375q0.625 -0.859375 1.796875 -0.859375q1.078125 0 1.78125 0.78125q0.703125 0.765625 0.703125 2.25q0 1.453125 -0.71875 2.25q-0.703125 0.78125 -1.75 0.78125q-1.046875 0 -1.734375 -0.765625q-0.6875 -0.78125 -0.6875 -2.34375zm2.4375 -1.984375q-0.515625 0 -0.875 0.453125q-0.34375 0.453125 -0.34375 1.671875q0 1.09375 0.34375 1.546875q0.359375 0.453125 0.875 0.453125q0.53125 0 0.875 -0.453125q0.359375 -0.453125 0.359375 -1.65625q0 -1.109375 -0.359375 -1.5625q-0.34375 -0.453125 -0.875 -0.453125zm0.015625 11.109375l6.265625 -12.078125l1.140625 0l-6.25 12.078125l-1.15625 0zm4.953125 -3.109375q0 -1.234375 0.609375 -2.09375q0.625 -0.859375 1.796875 -0.859375q1.078125 0 1.78125 0.78125q0.71875 0.765625 0.71875 2.25q0 1.453125 -0.71875 2.25q-0.71875 0.78125 -1.765625 0.78125q-1.046875 0 -1.734375 -0.78125q-0.6875 -0.78125 -0.6875 -2.328125zm2.453125 -1.984375q-0.53125 0 -0.890625 0.453125q-0.34375 0.453125 -0.34375 1.671875q0 1.09375 0.34375 1.546875q0.359375 0.453125 0.875 0.453125q0.546875 0 0.890625 -0.453125q0.34375 -0.453125 0.34375 -1.65625q0 -1.109375 -0.359375 -1.5625q-0.34375 -0.453125 -0.859375 -0.453125z" fill-rule="nonzero"/><path fill="#000000" fill-opacity="0.0" d="m416.47333 233.15178c0 5.9079437 -0.5614624 19.05275 6.548065 16.975998c7.0360107 -2.0552673 1.617096 -15.559387 -5.6746216 -16.975998" fill-rule="evenodd"/><path stroke="#595959" stroke-width="1.0" stroke-linejoin="round" stroke-linecap="butt" d="m416.47333 233.15178c0 5.9079437 -0.5614624 19.05275 6.548065 16.975998c7.0360107 -2.0552673 1.617096 -15.559387 -5.6746216 -16.975998" fill-rule="evenodd"/><path fill="#000000" fill-opacity="0.0" d="m393.17093 233.15178c0 5.9079437 -0.5614624 19.05275 6.548065 16.975998c7.03598 -2.0552673 1.617096 -15.559387 -5.6746216 -16.975998" fill-rule="evenodd"/><path stroke="#595959" stroke-width="1.0" stroke-linejoin="round" stroke-linecap="butt" d="m393.17093 233.15178c0 5.9079437 -0.5614624 19.05275 6.548065 16.975998c7.03598 -2.0552673 1.617096 -15.559387 -5.6746216 -16.975998" fill-rule="evenodd"/><path fill="#f9ffc0" d="m402.77322 89.66728l10.917267 0l0 17.257263l-10.917267 0z" fill-rule="evenodd"/><path stroke="#595959" stroke-width="1.0" stroke-linejoin="round" stroke-linecap="butt" d="m402.77322 89.66728l10.917267 0l0 17.257263l-10.917267 0z" fill-rule="evenodd"/><path fill="#f9ffc0" d="m392.9559 79.177315l0 0c0 -9.802826 6.8388367 -17.749592 15.274994 -17.749592c8.436157 0 15.274994 7.946766 15.274994 17.749592c0 9.802826 -6.8388367 17.749588 -15.274994 17.749588c-8.436157 0 -15.274994 -7.946762 -15.274994 -17.749588z" fill-rule="evenodd"/><path fill="#c7cb99" d="m401.7461 73.86887c0 -1.0211258 0.7123718 -1.8489151 1.591156 -1.8489151c0.87875366 0 1.5911255 0.8277893 1.5911255 1.8489151c0 1.0211258 -0.7123718 1.8489151 -1.5911255 1.8489151c-0.8787842 0 -1.591156 -0.8277893 -1.591156 -1.8489151m9.787323 0c0 -1.0211258 0.7123718 -1.8489151 1.5911255 -1.8489151c0.8787842 0 1.591156 0.8277893 1.591156 1.8489151c0 1.0211258 -0.7123718 1.8489151 -1.591156 1.8489151c-0.87875366 0 -1.5911255 -0.8277893 -1.5911255 -1.8489151" fill-rule="evenodd"/><path fill="#000000" fill-opacity="0.0" d="m399.95175 89.13957q8.279144 -2.2790527 16.53897 0" fill-rule="evenodd"/><path fill="#000000" fill-opacity="0.0" d="m392.9559 79.177315l0 0c0 -9.802826 6.8388367 -17.749592 15.274994 -17.749592c8.436157 0 15.274994 7.946766 15.274994 17.749592c0 9.802826 -6.8388367 17.749588 -15.274994 17.749588c-8.436157 0 -15.274994 -7.946762 -15.274994 -17.749588z" fill-rule="evenodd"/><path stroke="#595959" stroke-width="1.0" stroke-linejoin="round" stroke-linecap="butt" d="m401.7461 73.86887c0 -1.0211258 0.7123718 -1.8489151 1.591156 -1.8489151c0.87875366 0 1.5911255 0.8277893 1.5911255 1.8489151c0 1.0211258 -0.7123718 1.8489151 -1.5911255 1.8489151c-0.8787842 0 -1.591156 -0.8277893 -1.591156 -1.8489151m9.787323 0c0 -1.0211258 0.7123718 -1.8489151 1.5911255 -1.8489151c0.8787842 0 1.591156 0.8277893 1.591156 1.8489151c0 1.0211258 -0.7123718 1.8489151 -1.591156 1.8489151c-0.87875366 0 -1.5911255 -0.8277893 -1.5911255 -1.8489151" fill-rule="evenodd"/><path stroke="#595959" stroke-width="1.0" stroke-linejoin="round" stroke-linecap="butt" d="m399.95175 89.13957q8.279144 -2.2790527 16.53897 0" fill-rule="evenodd"/><path stroke="#595959" stroke-width="1.0" stroke-linejoin="round" stroke-linecap="butt" d="m392.9559 79.177315l0 0c0 -9.802826 6.8388367 -17.749592 15.274994 -17.749592c8.436157 0 15.274994 7.946766 15.274994 17.749592c0 9.802826 -6.8388367 17.749588 -15.274994 17.749588c-8.436157 0 -15.274994 -7.946762 -15.274994 -17.749588z" fill-rule="evenodd"/><path fill="#eeeeee" d="m392.73514 164.87561l-2.1826782 71.57193l12.656525 2.407425l5.2388306 -51.124695l6.10849 52.325775l14.839203 -1.8042603l-3.9276733 -75.78096z" fill-rule="evenodd"/><path stroke="#595959" stroke-width="1.0" stroke-linejoin="round" stroke-linecap="butt" d="m392.73514 164.87561l-2.1826782 71.57193l12.656525 2.407425l5.2388306 -51.124695l6.10849 52.325775l14.839203 -1.8042603l-3.9276733 -75.78096z" fill-rule="evenodd"/><path fill="#eeeeee" d="m401.6087 98.04975l6.3908386 4.929718l7.7601624 -4.437393l11.412384 1.4791336l20.539856 37.967285l-9.585266 6.9033356l-11.4123535 -23.668282l0.9135437 47.334404l-37.429535 0.49447632l0.91152954 -48.321205l-10.95459 24.160606l-9.585266 -6.9033356l17.345428 -35.501343z" fill-rule="evenodd"/><path stroke="#595959" stroke-width="1.0" stroke-linejoin="round" stroke-linecap="butt" d="m401.6087 98.04975l6.3908386 4.929718l7.7601624 -4.437393l11.412384 1.4791336l20.539856 37.967285l-9.585266 6.9033356l-11.4123535 -23.668282l0.9135437 47.334404l-37.429535 0.49447632l0.91152954 -48.321205l-10.95459 24.160606l-9.585266 -6.9033356l17.345428 -35.501343z" fill-rule="evenodd"/><path fill="#000000" fill-opacity="0.0" d="m377.8959 141.9314c-0.5058594 6.5824127 -1.7449951 13.116043 -1.7449951 19.723206" fill-rule="evenodd"/><path stroke="#595959" stroke-width="1.0" stroke-linejoin="round" stroke-linecap="butt" d="m377.8959 141.9314c-0.5058594 6.5824127 -1.7449951 13.116043 -1.7449951 19.723206" fill-rule="evenodd"/><path fill="#000000" fill-opacity="0.0" d="m442.05206 142.42589c1.1034241 5.402298 2.3599854 10.782257 3.0561523 16.270462" fill-rule="evenodd"/><path stroke="#595959" stroke-width="1.0" stroke-linejoin="round" stroke-linecap="butt" d="m442.05206 142.42589c1.1034241 5.402298 2.3599854 10.782257 3.0561523 16.270462" fill-rule="evenodd"/><path fill="#000000" fill-opacity="0.0" d="m381.169 96.9269l59.012848 0l0 35.499184l-59.012848 0z" fill-rule="evenodd"/><path fill="#000000" d="m402.4348 124.61003l0 1.796875l-10.09375 0q-0.015625 -0.671875 0.21875 -1.296875q0.390625 -1.03125 1.234375 -2.03125q0.859375 -1.0 2.453125 -2.3125q2.5 -2.046875 3.375 -3.234375q0.875 -1.203125 0.875 -2.25q0 -1.125 -0.796875 -1.890625q-0.796875 -0.765625 -2.078125 -0.765625q-1.359375 0 -2.171875 0.8125q-0.8125 0.8125 -0.828125 2.25l-1.921875 -0.1875q0.203125 -2.15625 1.484375 -3.28125q1.296875 -1.140625 3.46875 -1.140625q2.203125 0 3.484375 1.21875q1.28125 1.21875 1.28125 3.015625q0 0.921875 -0.375 1.8125q-0.375 0.875 -1.25 1.859375q-0.859375 0.96875 -2.890625 2.6875q-1.6875 1.40625 -2.171875 1.921875q-0.46875 0.5 -0.78125 1.015625l7.484375 0zm2.0179443 -5.734375q0 -2.703125 0.546875 -4.34375q0.5625 -1.65625 1.65625 -2.546875q1.109375 -0.90625 2.765625 -0.90625q1.234375 0 2.15625 0.5q0.9375 0.484375 1.53125 1.421875q0.609375 0.9375 0.953125 2.28125q0.34375 1.328125 0.34375 3.59375q0 2.6875 -0.5625 4.34375q-0.546875 1.640625 -1.640625 2.546875q-1.09375 0.90625 -2.78125 0.90625q-2.203125 0 -3.46875 -1.59375q-1.5 -1.90625 -1.5 -6.203125zm1.921875 0q0 3.765625 0.875 5.015625q0.890625 1.234375 2.171875 1.234375q1.296875 0 2.171875 -1.25q0.890625 -1.25 0.890625 -5.0q0 -3.765625 -0.890625 -5.0q-0.875 -1.25 -2.1875 -1.25q-1.296875 0 -2.0625 1.09375q-0.96875 1.40625 -0.96875 5.15625z" fill-rule="nonzero"/><path fill="#000000" d="m416.36133 117.70378q0 -1.234375 0.609375 -2.09375q0.625 -0.859375 1.796875 -0.859375q1.078125 0 1.78125 0.78125q0.703125 0.765625 0.703125 2.25q0 1.453125 -0.71875 2.25q-0.703125 0.78125 -1.75 0.78125q-1.046875 0 -1.734375 -0.765625q-0.6875 -0.78125 -0.6875 -2.34375zm2.4375 -1.984375q-0.515625 0 -0.875 0.453125q-0.34375 0.453125 -0.34375 1.671875q0 1.09375 0.34375 1.546875q0.359375 0.453125 0.875 0.453125q0.53125 0 0.875 -0.453125q0.359375 -0.453125 0.359375 -1.65625q0 -1.109375 -0.359375 -1.5625q-0.34375 -0.453125 -0.875 -0.453125zm0.015625 11.109375l6.265625 -12.078125l1.140625 0l-6.25 12.078125l-1.15625 0zm4.953125 -3.109375q0 -1.234375 0.609375 -2.09375q0.625 -0.859375 1.796875 -0.859375q1.078125 0 1.78125 0.78125q0.71875 0.765625 0.71875 2.25q0 1.453125 -0.71875 2.25q-0.71875 0.78125 -1.765625 0.78125q-1.046875 0 -1.734375 -0.78125q-0.6875 -0.78125 -0.6875 -2.328125zm2.453125 -1.984375q-0.53125 0 -0.890625 0.453125q-0.34375 0.453125 -0.34375 1.671875q0 1.09375 0.34375 1.546875q0.359375 0.453125 0.875 0.453125q0.546875 0 0.890625 -0.453125q0.34375 -0.453125 0.34375 -1.65625q0 -1.109375 -0.359375 -1.5625q-0.34375 -0.453125 -0.859375 -0.453125z" fill-rule="nonzero"/><path fill="#000000" fill-opacity="0.0" d="m513.45825 233.15178c0 5.9079437 -0.5614624 19.05275 6.5480347 16.975998c7.0360107 -2.0552673 1.6171265 -15.559387 -5.6745605 -16.975998" fill-rule="evenodd"/><path stroke="#595959" stroke-width="1.0" stroke-linejoin="round" stroke-linecap="butt" d="m513.45825 233.15178c0 5.9079437 -0.5614624 19.05275 6.5480347 16.975998c7.0360107 -2.0552673 1.6171265 -15.559387 -5.6745605 -16.975998" fill-rule="evenodd"/><path fill="#000000" fill-opacity="0.0" d="m490.15585 233.15178c0 5.9079437 -0.5614624 19.05275 6.548065 16.975998c7.0360107 -2.0552673 1.617096 -15.559387 -5.6746216 -16.975998" fill-rule="evenodd"/><path stroke="#595959" stroke-width="1.0" stroke-linejoin="round" stroke-linecap="butt" d="m490.15585 233.15178c0 5.9079437 -0.5614624 19.05275 6.548065 16.975998c7.0360107 -2.0552673 1.617096 -15.559387 -5.6746216 -16.975998" fill-rule="evenodd"/><path fill="#f9ffc0" d="m499.75815 89.66728l10.917267 0l0 17.257263l-10.917267 0z" fill-rule="evenodd"/><path stroke="#595959" stroke-width="1.0" stroke-linejoin="round" stroke-linecap="butt" d="m499.75815 89.66728l10.917267 0l0 17.257263l-10.917267 0z" fill-rule="evenodd"/><path fill="#f9ffc0" d="m489.94083 79.177315l0 0c0 -9.802826 6.8388367 -17.749592 15.274994 -17.749592c8.436157 0 15.275024 7.946766 15.275024 17.749592c0 9.802826 -6.838867 17.749588 -15.275024 17.749588c-8.436157 0 -15.274994 -7.946762 -15.274994 -17.749588z" fill-rule="evenodd"/><path fill="#c7cb99" d="m498.73102 73.86887c0 -1.0211258 0.7123718 -1.8489151 1.591156 -1.8489151c0.87875366 0 1.5911255 0.8277893 1.5911255 1.8489151c0 1.0211258 -0.7123718 1.8489151 -1.5911255 1.8489151c-0.8787842 0 -1.591156 -0.8277893 -1.591156 -1.8489151m9.787323 0c0 -1.0211258 0.7123718 -1.8489151 1.5911255 -1.8489151c0.8787842 0 1.591156 0.8277893 1.591156 1.8489151c0 1.0211258 -0.7123718 1.8489151 -1.591156 1.8489151c-0.87875366 0 -1.5911255 -0.8277893 -1.5911255 -1.8489151" fill-rule="evenodd"/><path fill="#000000" fill-opacity="0.0" d="m496.93668 89.13957q8.279144 -2.2790527 16.53897 0" fill-rule="evenodd"/><path fill="#000000" fill-opacity="0.0" d="m489.94083 79.177315l0 0c0 -9.802826 6.8388367 -17.749592 15.274994 -17.749592c8.436157 0 15.275024 7.946766 15.275024 17.749592c0 9.802826 -6.838867 17.749588 -15.275024 17.749588c-8.436157 0 -15.274994 -7.946762 -15.274994 -17.749588z" fill-rule="evenodd"/><path stroke="#595959" stroke-width="1.0" stroke-linejoin="round" stroke-linecap="butt" d="m498.73102 73.86887c0 -1.0211258 0.7123718 -1.8489151 1.591156 -1.8489151c0.87875366 0 1.5911255 0.8277893 1.5911255 1.8489151c0 1.0211258 -0.7123718 1.8489151 -1.5911255 1.8489151c-0.8787842 0 -1.591156 -0.8277893 -1.591156 -1.8489151m9.787323 0c0 -1.0211258 0.7123718 -1.8489151 1.5911255 -1.8489151c0.8787842 0 1.591156 0.8277893 1.591156 1.8489151c0 1.0211258 -0.7123718 1.8489151 -1.591156 1.8489151c-0.87875366 0 -1.5911255 -0.8277893 -1.5911255 -1.8489151" fill-rule="evenodd"/><path stroke="#595959" stroke-width="1.0" stroke-linejoin="round" stroke-linecap="butt" d="m496.93668 89.13957q8.279144 -2.2790527 16.53897 0" fill-rule="evenodd"/><path stroke="#595959" stroke-width="1.0" stroke-linejoin="round" stroke-linecap="butt" d="m489.94083 79.177315l0 0c0 -9.802826 6.8388367 -17.749592 15.274994 -17.749592c8.436157 0 15.275024 7.946766 15.275024 17.749592c0 9.802826 -6.838867 17.749588 -15.275024 17.749588c-8.436157 0 -15.274994 -7.946762 -15.274994 -17.749588z" fill-rule="evenodd"/><path fill="#eeeeee" d="m489.72006 164.87561l-2.1826782 71.57193l12.656525 2.407425l5.2388306 -51.124695l6.10849 52.325775l14.839203 -1.8042603l-3.9276733 -75.78096z" fill-rule="evenodd"/><path stroke="#595959" stroke-width="1.0" stroke-linejoin="round" stroke-linecap="butt" d="m489.72006 164.87561l-2.1826782 71.57193l12.656525 2.407425l5.2388306 -51.124695l6.10849 52.325775l14.839203 -1.8042603l-3.9276733 -75.78096z" fill-rule="evenodd"/><path fill="#eeeeee" d="m498.59363 98.04975l6.3908386 4.929718l7.7601624 -4.437393l11.412415 1.4791336l20.539856 37.967285l-9.585266 6.9033356l-11.412415 -23.668282l0.9135742 47.334404l-37.429535 0.49447632l0.91152954 -48.321205l-10.95459 24.160606l-9.585266 -6.9033356l17.345459 -35.501343z" fill-rule="evenodd"/><path stroke="#595959" stroke-width="1.0" stroke-linejoin="round" stroke-linecap="butt" d="m498.59363 98.04975l6.3908386 4.929718l7.7601624 -4.437393l11.412415 1.4791336l20.539856 37.967285l-9.585266 6.9033356l-11.412415 -23.668282l0.9135742 47.334404l-37.429535 0.49447632l0.91152954 -48.321205l-10.95459 24.160606l-9.585266 -6.9033356l17.345459 -35.501343z" fill-rule="evenodd"/><path fill="#000000" fill-opacity="0.0" d="m474.88083 141.9314c-0.5058594 6.5824127 -1.7449951 13.116043 -1.7449951 19.723206" fill-rule="evenodd"/><path stroke="#595959" stroke-width="1.0" stroke-linejoin="round" stroke-linecap="butt" d="m474.88083 141.9314c-0.5058594 6.5824127 -1.7449951 13.116043 -1.7449951 19.723206" fill-rule="evenodd"/><path fill="#000000" fill-opacity="0.0" d="m539.037 142.42589c1.1033936 5.402298 2.3599854 10.782257 3.0561523 16.270462" fill-rule="evenodd"/><path stroke="#595959" stroke-width="1.0" stroke-linejoin="round" stroke-linecap="butt" d="m539.037 142.42589c1.1033936 5.402298 2.3599854 10.782257 3.0561523 16.270462" fill-rule="evenodd"/><path fill="#000000" fill-opacity="0.0" d="m478.15393 96.9269l59.01288 0l0 35.499184l-59.01288 0z" fill-rule="evenodd"/><path fill="#000000" d="m490.86517 121.34566l1.75 -0.234375q0.3125 1.5 1.03125 2.15625q0.734375 0.65625 1.78125 0.65625q1.234375 0 2.078125 -0.859375q0.859375 -0.859375 0.859375 -2.125q0 -1.21875 -0.796875 -2.0q-0.78125 -0.78125 -2.0 -0.78125q-0.5 0 -1.234375 0.1875l0.1875 -1.546875q0.171875 0.03125 0.28125 0.03125q1.125 0 2.015625 -0.578125q0.90625 -0.59375 0.90625 -1.8125q0 -0.96875 -0.65625 -1.609375q-0.65625 -0.640625 -1.6875 -0.640625q-1.015625 0 -1.703125 0.65625q-0.6875 0.640625 -0.875 1.921875l-1.765625 -0.3125q0.328125 -1.765625 1.46875 -2.734375q1.140625 -0.96875 2.84375 -0.96875q1.171875 0 2.15625 0.5q0.984375 0.5 1.5 1.375q0.53125 0.875 0.53125 1.84375q0 0.921875 -0.5 1.6875q-0.5 0.765625 -1.46875 1.21875q1.265625 0.28125 1.96875 1.21875q0.703125 0.921875 0.703125 2.296875q0 1.875 -1.375 3.1875q-1.359375 1.296875 -3.453125 1.296875q-1.890625 0 -3.140625 -1.125q-1.234375 -1.125 -1.40625 -2.90625zm11.107422 -3.28125q0 -2.53125 0.515625 -4.078125q0.53125 -1.5625 1.5625 -2.390625q1.03125 -0.84375 2.59375 -0.84375q1.15625 0 2.015625 0.46875q0.875 0.453125 1.4375 1.328125q0.5625 0.875 0.890625 2.140625q0.328125 1.25 0.328125 3.375q0 2.515625 -0.53125 4.0625q-0.515625 1.546875 -1.546875 2.40625q-1.015625 0.84375 -2.59375 0.84375q-2.078125 0 -3.25 -1.484375q-1.421875 -1.796875 -1.421875 -5.828125zm1.8125 0q0 3.53125 0.8125 4.703125q0.828125 1.15625 2.046875 1.15625q1.203125 0 2.03125 -1.171875q0.828125 -1.171875 0.828125 -4.6875q0 -3.53125 -0.828125 -4.6875q-0.828125 -1.171875 -2.046875 -1.171875q-1.21875 0 -1.9375 1.03125q-0.90625 1.296875 -0.90625 4.828125z" fill-rule="nonzero"/><path fill="#000000" d="m513.1269 117.15816q0 -1.125 0.5625 -1.90625q0.5625 -0.796875 1.640625 -0.796875q0.984375 0 1.625 0.703125q0.65625 0.703125 0.65625 2.078125q0 1.328125 -0.65625 2.046875q-0.65625 0.71875 -1.625 0.71875q-0.9375 0 -1.578125 -0.703125q-0.625 -0.71875 -0.625 -2.140625zm2.234375 -1.8125q-0.484375 0 -0.8125 0.421875q-0.3125 0.40625 -0.3125 1.515625q0 1.015625 0.328125 1.421875q0.328125 0.40625 0.796875 0.40625q0.484375 0 0.796875 -0.40625q0.328125 -0.421875 0.328125 -1.515625q0 -1.015625 -0.328125 -1.421875q-0.3125 -0.421875 -0.796875 -0.421875zm0 10.171875l5.75 -11.0625l1.046875 0l-5.71875 11.0625l-1.078125 0zm4.546875 -2.859375q0 -1.125 0.5625 -1.90625q0.5625 -0.78125 1.640625 -0.78125q0.984375 0 1.625 0.703125q0.65625 0.703125 0.65625 2.0625q0 1.34375 -0.65625 2.0625q-0.640625 0.71875 -1.609375 0.71875q-0.953125 0 -1.59375 -0.703125q-0.625 -0.71875 -0.625 -2.15625zm2.25 -1.796875q-0.5 0 -0.8125 0.421875q-0.3125 0.40625 -0.3125 1.515625q0 1.0 0.3125 1.421875q0.328125 0.40625 0.796875 0.40625q0.5 0 0.8125 -0.40625q0.3125 -0.421875 0.3125 -1.53125q0 -1.015625 -0.328125 -1.421875q-0.3125 -0.40625 -0.78125 -0.40625z" fill-rule="nonzero"/><path fill="#000000" fill-opacity="0.0" d="m608.7455 235.03568c0 5.9079437 -0.5614624 19.05275 6.5480957 16.975998c7.0359497 -2.0552673 1.6170654 -15.559387 -5.6746216 -16.975998" fill-rule="evenodd"/><path stroke="#595959" stroke-width="1.0" stroke-linejoin="round" stroke-linecap="butt" d="m608.7455 235.03568c0 5.9079437 -0.5614624 19.05275 6.5480957 16.975998c7.0359497 -2.0552673 1.6170654 -15.559387 -5.6746216 -16.975998" fill-rule="evenodd"/><path fill="#000000" fill-opacity="0.0" d="m585.44305 235.03568c0 5.9079437 -0.56140137 19.05275 6.5480957 16.975998c7.0360107 -2.0552673 1.6171265 -15.559387 -5.6746216 -16.975998" fill-rule="evenodd"/><path stroke="#595959" stroke-width="1.0" stroke-linejoin="round" stroke-linecap="butt" d="m585.44305 235.03568c0 5.9079437 -0.56140137 19.05275 6.5480957 16.975998c7.0360107 -2.0552673 1.6171265 -15.559387 -5.6746216 -16.975998" fill-rule="evenodd"/><path fill="#f9ffc0" d="m595.0454 91.55118l10.917236 0l0 17.257263l-10.917236 0z" fill-rule="evenodd"/><path stroke="#595959" stroke-width="1.0" stroke-linejoin="round" stroke-linecap="butt" d="m595.0454 91.55118l10.917236 0l0 17.257263l-10.917236 0z" fill-rule="evenodd"/><path fill="#f9ffc0" d="m585.2281 81.06121l0 0c0 -9.802826 6.838806 -17.749592 15.274963 -17.749592c8.436157 0 15.275024 7.946766 15.275024 17.749592c0 9.802826 -6.838867 17.749588 -15.275024 17.749588c-8.436157 0 -15.274963 -7.946762 -15.274963 -17.749588z" fill-rule="evenodd"/><path fill="#c7cb99" d="m594.01825 75.75277c0 -1.0211334 0.71240234 -1.8489151 1.5911865 -1.8489151c0.87872314 0 1.5911255 0.8277817 1.5911255 1.8489151c0 1.0211258 -0.71240234 1.8489151 -1.5911255 1.8489151c-0.8787842 0 -1.5911865 -0.8277893 -1.5911865 -1.8489151m9.7873535 0c0 -1.0211334 0.7123413 -1.8489151 1.5911255 -1.8489151c0.8787842 0 1.5911255 0.8277817 1.5911255 1.8489151c0 1.0211258 -0.7123413 1.8489151 -1.5911255 1.8489151c-0.8787842 0 -1.5911255 -0.8277893 -1.5911255 -1.8489151" fill-rule="evenodd"/><path fill="#000000" fill-opacity="0.0" d="m592.22394 90.90738q8.279114 -1.8147202 16.53894 0" fill-rule="evenodd"/><path fill="#000000" fill-opacity="0.0" d="m585.2281 81.06121l0 0c0 -9.802826 6.838806 -17.749592 15.274963 -17.749592c8.436157 0 15.275024 7.946766 15.275024 17.749592c0 9.802826 -6.838867 17.749588 -15.275024 17.749588c-8.436157 0 -15.274963 -7.946762 -15.274963 -17.749588z" fill-rule="evenodd"/><path stroke="#595959" stroke-width="1.0" stroke-linejoin="round" stroke-linecap="butt" d="m594.01825 75.75277c0 -1.0211334 0.71240234 -1.8489151 1.5911865 -1.8489151c0.87872314 0 1.5911255 0.8277817 1.5911255 1.8489151c0 1.0211258 -0.71240234 1.8489151 -1.5911255 1.8489151c-0.8787842 0 -1.5911865 -0.8277893 -1.5911865 -1.8489151m9.7873535 0c0 -1.0211334 0.7123413 -1.8489151 1.5911255 -1.8489151c0.8787842 0 1.5911255 0.8277817 1.5911255 1.8489151c0 1.0211258 -0.7123413 1.8489151 -1.5911255 1.8489151c-0.8787842 0 -1.5911255 -0.8277893 -1.5911255 -1.8489151" fill-rule="evenodd"/><path stroke="#595959" stroke-width="1.0" stroke-linejoin="round" stroke-linecap="butt" d="m592.22394 90.90738q8.279114 -1.8147202 16.53894 0" fill-rule="evenodd"/><path stroke="#595959" stroke-width="1.0" stroke-linejoin="round" stroke-linecap="butt" d="m585.2281 81.06121l0 0c0 -9.802826 6.838806 -17.749592 15.274963 -17.749592c8.436157 0 15.275024 7.946766 15.275024 17.749592c0 9.802826 -6.838867 17.749588 -15.275024 17.749588c-8.436157 0 -15.274963 -7.946762 -15.274963 -17.749588z" fill-rule="evenodd"/><path fill="#eeeeee" d="m585.0073 166.7595l-2.1826782 71.57193l12.656494 2.407425l5.2388306 -51.124695l6.1085205 52.32576l14.839172 -1.804245l-3.9276733 -75.78096z" fill-rule="evenodd"/><path stroke="#595959" stroke-width="1.0" stroke-linejoin="round" stroke-linecap="butt" d="m585.0073 166.7595l-2.1826782 71.57193l12.656494 2.407425l5.2388306 -51.124695l6.1085205 52.32576l14.839172 -1.804245l-3.9276733 -75.78096z" fill-rule="evenodd"/><path fill="#eeeeee" d="m593.88086 99.93365l6.390869 4.929718l7.760132 -4.437393l11.412415 1.4791336l20.539856 37.967285l-9.585266 6.9033356l-11.4123535 -23.668282l0.9135132 47.334404l-37.429504 0.49447632l0.911499 -48.321205l-10.95459 24.160606l-9.585266 -6.9033356l17.345459 -35.50135z" fill-rule="evenodd"/><path stroke="#595959" stroke-width="1.0" stroke-linejoin="round" stroke-linecap="butt" d="m593.88086 99.93365l6.390869 4.929718l7.760132 -4.437393l11.412415 1.4791336l20.539856 37.967285l-9.585266 6.9033356l-11.4123535 -23.668282l0.9135132 47.334404l-37.429504 0.49447632l0.911499 -48.321205l-10.95459 24.160606l-9.585266 -6.9033356l17.345459 -35.50135z" fill-rule="evenodd"/><path fill="#000000" fill-opacity="0.0" d="m570.1681 143.81529c-0.5058594 6.5823975 -1.7449951 13.116043 -1.7449951 19.723206" fill-rule="evenodd"/><path stroke="#595959" stroke-width="1.0" stroke-linejoin="round" stroke-linecap="butt" d="m570.1681 143.81529c-0.5058594 6.5823975 -1.7449951 13.116043 -1.7449951 19.723206" fill-rule="evenodd"/><path fill="#000000" fill-opacity="0.0" d="m634.3242 144.30978c1.1034546 5.4022827 2.3599854 10.782257 3.0561523 16.270462" fill-rule="evenodd"/><path stroke="#595959" stroke-width="1.0" stroke-linejoin="round" stroke-linecap="butt" d="m634.3242 144.30978c1.1034546 5.4022827 2.3599854 10.782257 3.0561523 16.270462" fill-rule="evenodd"/><path fill="#000000" fill-opacity="0.0" d="m577.4749 98.80972l49.540527 0l0 35.499176l-49.540527 0z" fill-rule="evenodd"/><path fill="#000000" d="m593.16315 125.72972l0 -3.203125l-5.796875 0l0 -1.5l6.09375 -8.65625l1.34375 0l0 8.65625l1.796875 0l0 1.5l-1.796875 0l0 3.203125l-1.640625 0zm0 -4.703125l0 -6.015625l-4.1875 6.015625l4.1875 0zm5.1257324 -1.890625q0 -2.359375 0.484375 -3.796875q0.484375 -1.453125 1.4375 -2.234375q0.96875 -0.78125 2.421875 -0.78125q1.078125 0 1.890625 0.4375q0.8125 0.421875 1.328125 1.25q0.53125 0.8125 0.828125 1.984375q0.3125 1.15625 0.3125 3.140625q0 2.359375 -0.484375 3.8125q-0.484375 1.4375 -1.453125 2.234375q-0.953125 0.78125 -2.421875 0.78125q-1.921875 0 -3.03125 -1.390625q-1.3125 -1.671875 -1.3125 -5.4375zm1.671875 0q0 3.296875 0.765625 4.390625q0.78125 1.078125 1.90625 1.078125q1.140625 0 1.90625 -1.09375q0.765625 -1.09375 0.765625 -4.375q0 -3.296875 -0.765625 -4.375q-0.765625 -1.078125 -1.921875 -1.078125q-1.125 0 -1.796875 0.953125q-0.859375 1.21875 -0.859375 4.5z" fill-rule="nonzero"/><path fill="#000000" d="m608.50836 119.932846q0 -0.8125 0.40625 -1.390625q0.40625 -0.578125 1.1875 -0.578125q0.71875 0 1.1875 0.515625q0.46875 0.515625 0.46875 1.515625q0 0.96875 -0.484375 1.5q-0.46875 0.515625 -1.15625 0.515625q-0.6875 0 -1.15625 -0.515625q-0.453125 -0.515625 -0.453125 -1.5625zm1.625 -1.3125q-0.34375 0 -0.578125 0.296875q-0.234375 0.296875 -0.234375 1.109375q0 0.734375 0.234375 1.03125q0.234375 0.296875 0.578125 0.296875q0.359375 0 0.578125 -0.296875q0.234375 -0.296875 0.234375 -1.109375q0 -0.734375 -0.234375 -1.03125q-0.234375 -0.296875 -0.578125 -0.296875zm0 7.390625l4.171875 -8.046875l0.765625 0l-4.15625 8.046875l-0.78125 0zm3.296875 -2.078125q0 -0.8125 0.40625 -1.375q0.421875 -0.578125 1.203125 -0.578125q0.71875 0 1.1875 0.515625q0.46875 0.515625 0.46875 1.5q0 0.96875 -0.46875 1.5q-0.46875 0.515625 -1.171875 0.515625q-0.703125 0 -1.171875 -0.515625q-0.453125 -0.515625 -0.453125 -1.5625zm1.640625 -1.3125q-0.359375 0 -0.59375 0.3125q-0.21875 0.296875 -0.21875 1.09375q0 0.734375 0.234375 1.046875q0.234375 0.296875 0.578125 0.296875q0.359375 0 0.578125 -0.296875q0.234375 -0.3125 0.234375 -1.109375q0 -0.75 -0.234375 -1.046875q-0.234375 -0.296875 -0.578125 -0.296875z" fill-rule="nonzero"/><path fill="#000000" fill-opacity="0.0" d="m271.1464 464.193c0 5.907959 -0.5614319 19.052734 6.548065 16.976013c7.0360107 -2.0552673 1.617096 -15.559387 -5.6746216 -16.976013" fill-rule="evenodd"/><path stroke="#595959" stroke-width="1.0" stroke-linejoin="round" stroke-linecap="butt" d="m271.1464 464.193c0 5.907959 -0.5614319 19.052734 6.548065 16.976013c7.0360107 -2.0552673 1.617096 -15.559387 -5.6746216 -16.976013" fill-rule="evenodd"/><path fill="#000000" fill-opacity="0.0" d="m247.84398 464.193c0 5.907959 -0.5614319 19.052734 6.548065 16.976013c7.036026 -2.0552673 1.6171112 -15.559387 -5.6746063 -16.976013" fill-rule="evenodd"/><path stroke="#595959" stroke-width="1.0" stroke-linejoin="round" stroke-linecap="butt" d="m247.84398 464.193c0 5.907959 -0.5614319 19.052734 6.548065 16.976013c7.036026 -2.0552673 1.6171112 -15.559387 -5.6746063 -16.976013" fill-rule="evenodd"/><path fill="#f9ffc0" d="m257.4463 320.7085l10.917267 0l0 17.257263l-10.917267 0z" fill-rule="evenodd"/><path stroke="#595959" stroke-width="1.0" stroke-linejoin="round" stroke-linecap="butt" d="m257.4463 320.7085l10.917267 0l0 17.257263l-10.917267 0z" fill-rule="evenodd"/><path fill="#f9ffc0" d="m247.62897 310.21854l0 0c0 -9.802826 6.838852 -17.749603 15.274994 -17.749603c8.436157 0 15.274994 7.9467773 15.274994 17.749603c0 9.802826 -6.8388367 17.749573 -15.274994 17.749573c-8.436142 0 -15.274994 -7.946747 -15.274994 -17.749573z" fill-rule="evenodd"/><path fill="#c7cb99" d="m256.41916 304.9101c0 -1.0211182 0.7123718 -1.8489075 1.591156 -1.8489075c0.87875366 0 1.5911255 0.8277893 1.5911255 1.8489075c0 1.0211182 -0.7123718 1.8489075 -1.5911255 1.8489075c-0.8787842 0 -1.591156 -0.8277893 -1.591156 -1.8489075m9.787323 0c0 -1.0211182 0.7123718 -1.8489075 1.5911255 -1.8489075c0.8787842 0 1.591156 0.8277893 1.591156 1.8489075c0 1.0211182 -0.7123718 1.8489075 -1.591156 1.8489075c-0.87875366 0 -1.5911255 -0.8277893 -1.5911255 -1.8489075" fill-rule="evenodd"/><path fill="#000000" fill-opacity="0.0" d="m254.62482 317.95926q8.279144 6.607086 16.53897 0" fill-rule="evenodd"/><path fill="#000000" fill-opacity="0.0" d="m247.62897 310.21854l0 0c0 -9.802826 6.838852 -17.749603 15.274994 -17.749603c8.436157 0 15.274994 7.9467773 15.274994 17.749603c0 9.802826 -6.8388367 17.749573 -15.274994 17.749573c-8.436142 0 -15.274994 -7.946747 -15.274994 -17.749573z" fill-rule="evenodd"/><path stroke="#595959" stroke-width="1.0" stroke-linejoin="round" stroke-linecap="butt" d="m256.41916 304.9101c0 -1.0211182 0.7123718 -1.8489075 1.591156 -1.8489075c0.87875366 0 1.5911255 0.8277893 1.5911255 1.8489075c0 1.0211182 -0.7123718 1.8489075 -1.5911255 1.8489075c-0.8787842 0 -1.591156 -0.8277893 -1.591156 -1.8489075m9.787323 0c0 -1.0211182 0.7123718 -1.8489075 1.5911255 -1.8489075c0.8787842 0 1.591156 0.8277893 1.591156 1.8489075c0 1.0211182 -0.7123718 1.8489075 -1.591156 1.8489075c-0.87875366 0 -1.5911255 -0.8277893 -1.5911255 -1.8489075" fill-rule="evenodd"/><path stroke="#595959" stroke-width="1.0" stroke-linejoin="round" stroke-linecap="butt" d="m254.62482 317.95926q8.279144 6.607086 16.53897 0" fill-rule="evenodd"/><path stroke="#595959" stroke-width="1.0" stroke-linejoin="round" stroke-linecap="butt" d="m247.62897 310.21854l0 0c0 -9.802826 6.838852 -17.749603 15.274994 -17.749603c8.436157 0 15.274994 7.9467773 15.274994 17.749603c0 9.802826 -6.8388367 17.749573 -15.274994 17.749573c-8.436142 0 -15.274994 -7.946747 -15.274994 -17.749573z" fill-rule="evenodd"/><path fill="#eeeeee" d="m247.40822 395.91684l-2.1826935 71.57193l12.656525 2.4074097l5.2388306 -51.124695l6.10849 52.325775l14.839233 -1.8042603l-3.9277039 -75.780945z" fill-rule="evenodd"/><path stroke="#595959" stroke-width="1.0" stroke-linejoin="round" stroke-linecap="butt" d="m247.40822 395.91684l-2.1826935 71.57193l12.656525 2.4074097l5.2388306 -51.124695l6.10849 52.325775l14.839233 -1.8042603l-3.9277039 -75.780945z" fill-rule="evenodd"/><path fill="#eeeeee" d="m256.28177 329.09097l6.3908386 4.929718l7.760193 -4.4374084l11.4123535 1.4791565l20.539886 37.967255l-9.585297 6.903351l-11.4123535 -23.668274l0.9135437 47.33438l-37.429535 0.49450684l0.9115448 -48.321228l-10.95459 24.160614l-9.585281 -6.903351l17.345444 -35.501343z" fill-rule="evenodd"/><path stroke="#595959" stroke-width="1.0" stroke-linejoin="round" stroke-linecap="butt" d="m256.28177 329.09097l6.3908386 4.929718l7.760193 -4.4374084l11.4123535 1.4791565l20.539886 37.967255l-9.585297 6.903351l-11.4123535 -23.668274l0.9135437 47.33438l-37.429535 0.49450684l0.9115448 -48.321228l-10.95459 24.160614l-9.585281 -6.903351l17.345444 -35.501343z" fill-rule="evenodd"/><path fill="#000000" fill-opacity="0.0" d="m232.56898 372.97263c-0.5058594 6.5823975 -1.7449951 13.116028 -1.7449951 19.723206" fill-rule="evenodd"/><path stroke="#595959" stroke-width="1.0" stroke-linejoin="round" stroke-linecap="butt" d="m232.56898 372.97263c-0.5058594 6.5823975 -1.7449951 13.116028 -1.7449951 19.723206" fill-rule="evenodd"/><path fill="#000000" fill-opacity="0.0" d="m296.72513 373.4671c1.1034241 5.4022827 2.3600159 10.782257 3.0561523 16.270447" fill-rule="evenodd"/><path stroke="#595959" stroke-width="1.0" stroke-linejoin="round" stroke-linecap="butt" d="m296.72513 373.4671c1.1034241 5.4022827 2.3600159 10.782257 3.0561523 16.270447" fill-rule="evenodd"/><path fill="#000000" fill-opacity="0.0" d="m235.84207 327.9681l59.012848 0l0 35.499207l-59.012848 0z" fill-rule="evenodd"/><path fill="#000000" d="m256.9829 345.91687l-1.8593903 0.15625q-0.25 -1.109375 -0.703125 -1.609375q-0.765625 -0.796875 -1.875 -0.796875q-0.90625 0 -1.578125 0.5q-0.890625 0.640625 -1.40625 1.875q-0.5 1.234375 -0.515625 3.53125q0.671875 -1.03125 1.640625 -1.53125q0.984375 -0.5 2.0625 -0.5q1.875 0 3.1875 1.390625q1.3125153 1.375 1.3125153 3.5625q0 1.4375 -0.625 2.671875q-0.609375 1.234375 -1.6875153 1.890625q-1.078125 0.65625 -2.453125 0.65625q-2.34375 0 -3.828125 -1.71875q-1.484375 -1.734375 -1.484375 -5.6875q0 -4.421875 1.640625 -6.4375q1.421875 -1.75 3.84375 -1.75q1.796875 0 2.953125 1.015625q1.1562653 1.0 1.3750153 2.78125zm-7.6562653 6.578125q0 0.96875 0.40625 1.859375q0.421875 0.890625 1.15625 1.359375q0.75 0.453125 1.5625 0.453125q1.1875 0 2.03125 -0.953125q0.859375 -0.96875 0.859375 -2.609375q0 -1.578125 -0.84375 -2.484375q-0.84375 -0.921875 -2.125 -0.921875q-1.265625 0 -2.15625 0.921875q-0.890625 0.90625 -0.890625 2.375zm9.79921 -2.578125q0 -2.703125 0.546875 -4.34375q0.5625 -1.65625 1.65625 -2.546875q1.109375 -0.90625 2.765625 -0.90625q1.234375 0 2.15625 0.5q0.9375 0.484375 1.53125 1.421875q0.609375 0.9375 0.953125 2.28125q0.34375 1.328125 0.34375 3.59375q0 2.6875 -0.5625 4.34375q-0.546875 1.640625 -1.640625 2.546875q-1.09375 0.90625 -2.78125 0.90625q-2.203125 0 -3.46875 -1.59375q-1.5 -1.90625 -1.5 -6.203125zm1.921875 0q0 3.765625 0.875 5.015625q0.890625 1.234375 2.171875 1.234375q1.296875 0 2.171875 -1.25q0.890625 -1.25 0.890625 -5.0q0 -3.765625 -0.890625 -5.0q-0.875 -1.25 -2.1875 -1.25q-1.296875 0 -2.0625 1.09375q-0.96875 1.40625 -0.96875 5.15625z" fill-rule="nonzero"/><path fill="#000000" d="m271.03442 348.745q0 -1.234375 0.609375 -2.09375q0.625 -0.859375 1.796875 -0.859375q1.078125 0 1.78125 0.78125q0.703125 0.765625 0.703125 2.25q0 1.453125 -0.71875 2.25q-0.703125 0.78125 -1.75 0.78125q-1.046875 0 -1.734375 -0.765625q-0.6875 -0.78125 -0.6875 -2.34375zm2.4375 -1.984375q-0.515625 0 -0.875 0.453125q-0.34375 0.453125 -0.34375 1.671875q0 1.09375 0.34375 1.546875q0.359375 0.453125 0.875 0.453125q0.53125 0 0.875 -0.453125q0.359375 -0.453125 0.359375 -1.65625q0 -1.109375 -0.359375 -1.5625q-0.34375 -0.453125 -0.875 -0.453125zm0.015625 11.109375l6.265625 -12.078125l1.140625 0l-6.25 12.078125l-1.15625 0zm4.953125 -3.109375q0 -1.234375 0.609375 -2.09375q0.625 -0.859375 1.796875 -0.859375q1.078125 0 1.78125 0.78125q0.71875 0.765625 0.71875 2.25q0 1.453125 -0.71875 2.25q-0.71875 0.78125 -1.765625 0.78125q-1.046875 0 -1.734375 -0.78125q-0.6875 -0.78125 -0.6875 -2.328125zm2.453125 -1.984375q-0.53125 0 -0.890625 0.453125q-0.34375 0.453125 -0.34375 1.671875q0 1.09375 0.34375 1.546875q0.359375 0.453125 0.875 0.453125q0.546875 0 0.890625 -0.453125q0.34375 -0.453125 0.34375 -1.65625q0 -1.109375 -0.359375 -1.5625q-0.34375 -0.453125 -0.859375 -0.453125z" fill-rule="nonzero"/><path fill="#000000" fill-opacity="0.0" d="m365.3788 463.25153c0 5.9079285 -0.5614319 19.052734 6.548065 16.975983c7.0360107 -2.0552673 1.6171265 -15.559387 -5.674591 -16.975983" fill-rule="evenodd"/><path stroke="#595959" stroke-width="1.0" stroke-linejoin="round" stroke-linecap="butt" d="m365.3788 463.25153c0 5.9079285 -0.5614319 19.052734 6.548065 16.975983c7.0360107 -2.0552673 1.6171265 -15.559387 -5.674591 -16.975983" fill-rule="evenodd"/><path fill="#000000" fill-opacity="0.0" d="m342.07642 463.25153c0 5.9079285 -0.5614319 19.052734 6.548065 16.975983c7.0360107 -2.0552673 1.6171265 -15.559387 -5.674591 -16.975983" fill-rule="evenodd"/><path stroke="#595959" stroke-width="1.0" stroke-linejoin="round" stroke-linecap="butt" d="m342.07642 463.25153c0 5.9079285 -0.5614319 19.052734 6.548065 16.975983c7.0360107 -2.0552673 1.6171265 -15.559387 -5.674591 -16.975983" fill-rule="evenodd"/><path fill="#f9ffc0" d="m351.67874 319.76703l10.917267 0l0 17.257263l-10.917267 0z" fill-rule="evenodd"/><path stroke="#595959" stroke-width="1.0" stroke-linejoin="round" stroke-linecap="butt" d="m351.67874 319.76703l10.917267 0l0 17.257263l-10.917267 0z" fill-rule="evenodd"/><path fill="#f9ffc0" d="m341.86142 309.27704l0 0c0 -9.802826 6.8388367 -17.749573 15.274994 -17.749573c8.436127 0 15.274994 7.946747 15.274994 17.749573c0 9.802856 -6.838867 17.749603 -15.274994 17.749603c-8.436157 0 -15.274994 -7.946747 -15.274994 -17.749603z" fill-rule="evenodd"/><path fill="#c7cb99" d="m350.6516 303.9686c0 -1.0211182 0.7123718 -1.8489075 1.5911255 -1.8489075c0.8787842 0 1.591156 0.8277893 1.591156 1.8489075c0 1.0211487 -0.7123718 1.848938 -1.591156 1.848938c-0.87875366 0 -1.5911255 -0.8277893 -1.5911255 -1.848938m9.7872925 0c0 -1.0211182 0.71240234 -1.8489075 1.591156 -1.8489075c0.87875366 0 1.591156 0.8277893 1.591156 1.8489075c0 1.0211487 -0.71240234 1.848938 -1.591156 1.848938c-0.87875366 0 -1.591156 -0.8277893 -1.591156 -1.848938" fill-rule="evenodd"/><path fill="#000000" fill-opacity="0.0" d="m348.85727 317.01776q8.279144 6.6071167 16.53894 0" fill-rule="evenodd"/><path fill="#000000" fill-opacity="0.0" d="m341.86142 309.27704l0 0c0 -9.802826 6.8388367 -17.749573 15.274994 -17.749573c8.436127 0 15.274994 7.946747 15.274994 17.749573c0 9.802856 -6.838867 17.749603 -15.274994 17.749603c-8.436157 0 -15.274994 -7.946747 -15.274994 -17.749603z" fill-rule="evenodd"/><path stroke="#595959" stroke-width="1.0" stroke-linejoin="round" stroke-linecap="butt" d="m350.6516 303.9686c0 -1.0211182 0.7123718 -1.8489075 1.5911255 -1.8489075c0.8787842 0 1.591156 0.8277893 1.591156 1.8489075c0 1.0211487 -0.7123718 1.848938 -1.591156 1.848938c-0.87875366 0 -1.5911255 -0.8277893 -1.5911255 -1.848938m9.7872925 0c0 -1.0211182 0.71240234 -1.8489075 1.591156 -1.8489075c0.87875366 0 1.591156 0.8277893 1.591156 1.8489075c0 1.0211487 -0.71240234 1.848938 -1.591156 1.848938c-0.87875366 0 -1.591156 -0.8277893 -1.591156 -1.848938" fill-rule="evenodd"/><path stroke="#595959" stroke-width="1.0" stroke-linejoin="round" stroke-linecap="butt" d="m348.85727 317.01776q8.279144 6.6071167 16.53894 0" fill-rule="evenodd"/><path stroke="#595959" stroke-width="1.0" stroke-linejoin="round" stroke-linecap="butt" d="m341.86142 309.27704l0 0c0 -9.802826 6.8388367 -17.749573 15.274994 -17.749573c8.436127 0 15.274994 7.946747 15.274994 17.749573c0 9.802856 -6.838867 17.749603 -15.274994 17.749603c-8.436157 0 -15.274994 -7.946747 -15.274994 -17.749603z" fill-rule="evenodd"/><path fill="#eeeeee" d="m341.64066 394.97534l-2.1826782 71.57193l12.656525 2.4074402l5.2388306 -51.124695l6.10849 52.325745l14.839203 -1.8042297l-3.9276733 -75.780975z" fill-rule="evenodd"/><path stroke="#595959" stroke-width="1.0" stroke-linejoin="round" stroke-linecap="butt" d="m341.64066 394.97534l-2.1826782 71.57193l12.656525 2.4074402l5.2388306 -51.124695l6.10849 52.325745l14.839203 -1.8042297l-3.9276733 -75.780975z" fill-rule="evenodd"/><path fill="#eeeeee" d="m350.51422 328.14948l6.3908386 4.9297485l7.7601624 -4.4374084l11.412384 1.479126l20.539856 37.967285l-9.585266 6.903351l-11.412384 -23.668304l0.9135742 47.33441l-37.429565 0.49447632l0.91156006 -48.321198l-10.95459 24.160614l-9.585266 -6.903351l17.345428 -35.501343z" fill-rule="evenodd"/><path stroke="#595959" stroke-width="1.0" stroke-linejoin="round" stroke-linecap="butt" d="m350.51422 328.14948l6.3908386 4.9297485l7.7601624 -4.4374084l11.412384 1.479126l20.539856 37.967285l-9.585266 6.903351l-11.412384 -23.668304l0.9135742 47.33441l-37.429565 0.49447632l0.91156006 -48.321198l-10.95459 24.160614l-9.585266 -6.903351l17.345428 -35.501343z" fill-rule="evenodd"/><path fill="#000000" fill-opacity="0.0" d="m326.80142 372.03113c-0.5058594 6.5823975 -1.7449951 13.116058 -1.7449951 19.723206" fill-rule="evenodd"/><path stroke="#595959" stroke-width="1.0" stroke-linejoin="round" stroke-linecap="butt" d="m326.80142 372.03113c-0.5058594 6.5823975 -1.7449951 13.116058 -1.7449951 19.723206" fill-rule="evenodd"/><path fill="#000000" fill-opacity="0.0" d="m390.95758 372.52563c1.1033936 5.4022827 2.3599854 10.782257 3.0561218 16.270447" fill-rule="evenodd"/><path stroke="#595959" stroke-width="1.0" stroke-linejoin="round" stroke-linecap="butt" d="m390.95758 372.52563c1.1033936 5.4022827 2.3599854 10.782257 3.0561218 16.270447" fill-rule="evenodd"/><path fill="#000000" fill-opacity="0.0" d="m330.0745 327.02664l59.01288 0l0 35.499176l-59.01288 0z" fill-rule="evenodd"/><path fill="#000000" d="m341.62158 343.24103l0 -1.796875l9.875 0l0 1.453125q-1.453125 1.546875 -2.890625 4.125q-1.421875 2.5625 -2.203125 5.28125q-0.5625 1.921875 -0.71875 4.203125l-1.9375 0q0.03125 -1.796875 0.703125 -4.34375q0.6875 -2.5625 1.953125 -4.921875q1.265625 -2.375 2.6875 -4.0l-7.46875 0zm11.736694 5.734375q0 -2.703125 0.546875 -4.34375q0.5625 -1.65625 1.65625 -2.546875q1.109375 -0.90625 2.765625 -0.90625q1.234375 0 2.15625 0.5q0.9375 0.484375 1.53125 1.421875q0.609375 0.9375 0.953125 2.28125q0.34375 1.328125 0.34375 3.59375q0 2.6875 -0.5625 4.34375q-0.546875 1.640625 -1.640625 2.546875q-1.09375 0.90625 -2.78125 0.90625q-2.203125 0 -3.46875 -1.59375q-1.5 -1.90625 -1.5 -6.203125zm1.921875 0q0 3.765625 0.875 5.015625q0.890625 1.234375 2.171875 1.234375q1.296875 0 2.171875 -1.25q0.890625 -1.25 0.890625 -5.0q0 -3.765625 -0.890625 -5.0q-0.875 -1.25 -2.1875 -1.25q-1.296875 0 -2.0625 1.09375q-0.96875 1.40625 -0.96875 5.15625z" fill-rule="nonzero"/><path fill="#000000" d="m365.26685 347.80353q0 -1.234375 0.609375 -2.09375q0.625 -0.859375 1.796875 -0.859375q1.078125 0 1.78125 0.78125q0.703125 0.765625 0.703125 2.25q0 1.453125 -0.71875 2.25q-0.703125 0.78125 -1.75 0.78125q-1.046875 0 -1.734375 -0.765625q-0.6875 -0.78125 -0.6875 -2.34375zm2.4375 -1.984375q-0.515625 0 -0.875 0.453125q-0.34375 0.453125 -0.34375 1.671875q0 1.09375 0.34375 1.546875q0.359375 0.453125 0.875 0.453125q0.53125 0 0.875 -0.453125q0.359375 -0.453125 0.359375 -1.65625q0 -1.109375 -0.359375 -1.5625q-0.34375 -0.453125 -0.875 -0.453125zm0.015625 11.109375l6.265625 -12.078125l1.140625 0l-6.25 12.078125l-1.15625 0zm4.953125 -3.109375q0 -1.234375 0.609375 -2.09375q0.625 -0.859375 1.796875 -0.859375q1.078125 0 1.78125 0.78125q0.71875 0.765625 0.71875 2.25q0 1.453125 -0.71875 2.25q-0.71875 0.78125 -1.765625 0.78125q-1.046875 0 -1.734375 -0.78125q-0.6875 -0.78125 -0.6875 -2.328125zm2.453125 -1.984375q-0.53125 0 -0.890625 0.453125q-0.34375 0.453125 -0.34375 1.671875q0 1.09375 0.34375 1.546875q0.359375 0.453125 0.875 0.453125q0.546875 0 0.890625 -0.453125q0.34375 -0.453125 0.34375 -1.65625q0 -1.109375 -0.359375 -1.5625q-0.34375 -0.453125 -0.859375 -0.453125z" fill-rule="nonzero"/><path fill="#000000" fill-opacity="0.0" d="m462.36374 463.25153c0 5.9079285 -0.5614319 19.052734 6.5480957 16.975983c7.03598 -2.0552673 1.617096 -15.559387 -5.6746216 -16.975983" fill-rule="evenodd"/><path stroke="#595959" stroke-width="1.0" stroke-linejoin="round" stroke-linecap="butt" d="m462.36374 463.25153c0 5.9079285 -0.5614319 19.052734 6.5480957 16.975983c7.03598 -2.0552673 1.617096 -15.559387 -5.6746216 -16.975983" fill-rule="evenodd"/><path fill="#000000" fill-opacity="0.0" d="m439.06134 463.25153c0 5.9079285 -0.5614319 19.052734 6.548065 16.975983c7.0360107 -2.0552673 1.6171265 -15.559387 -5.674591 -16.975983" fill-rule="evenodd"/><path stroke="#595959" stroke-width="1.0" stroke-linejoin="round" stroke-linecap="butt" d="m439.06134 463.25153c0 5.9079285 -0.5614319 19.052734 6.548065 16.975983c7.0360107 -2.0552673 1.6171265 -15.559387 -5.674591 -16.975983" fill-rule="evenodd"/><path fill="#f9ffc0" d="m448.66367 319.76703l10.917267 0l0 17.257263l-10.917267 0z" fill-rule="evenodd"/><path stroke="#595959" stroke-width="1.0" stroke-linejoin="round" stroke-linecap="butt" d="m448.66367 319.76703l10.917267 0l0 17.257263l-10.917267 0z" fill-rule="evenodd"/><path fill="#f9ffc0" d="m438.84634 309.27704l0 0c0 -9.802826 6.8388367 -17.749573 15.274994 -17.749573c8.436157 0 15.274994 7.946747 15.274994 17.749573c0 9.802856 -6.8388367 17.749603 -15.274994 17.749603c-8.436157 0 -15.274994 -7.946747 -15.274994 -17.749603z" fill-rule="evenodd"/><path fill="#c7cb99" d="m447.63654 303.9686c0 -1.0211182 0.7123718 -1.8489075 1.5911255 -1.8489075c0.8787842 0 1.591156 0.8277893 1.591156 1.8489075c0 1.0211487 -0.7123718 1.848938 -1.591156 1.848938c-0.87875366 0 -1.5911255 -0.8277893 -1.5911255 -1.848938m9.787323 0c0 -1.0211182 0.7123718 -1.8489075 1.5911255 -1.8489075c0.8787842 0 1.591156 0.8277893 1.591156 1.8489075c0 1.0211487 -0.7123718 1.848938 -1.591156 1.848938c-0.87875366 0 -1.5911255 -0.8277893 -1.5911255 -1.848938" fill-rule="evenodd"/><path fill="#000000" fill-opacity="0.0" d="m445.8422 317.01776q8.279144 6.6071167 16.53894 0" fill-rule="evenodd"/><path fill="#000000" fill-opacity="0.0" d="m438.84634 309.27704l0 0c0 -9.802826 6.8388367 -17.749573 15.274994 -17.749573c8.436157 0 15.274994 7.946747 15.274994 17.749573c0 9.802856 -6.8388367 17.749603 -15.274994 17.749603c-8.436157 0 -15.274994 -7.946747 -15.274994 -17.749603z" fill-rule="evenodd"/><path stroke="#595959" stroke-width="1.0" stroke-linejoin="round" stroke-linecap="butt" d="m447.63654 303.9686c0 -1.0211182 0.7123718 -1.8489075 1.5911255 -1.8489075c0.8787842 0 1.591156 0.8277893 1.591156 1.8489075c0 1.0211487 -0.7123718 1.848938 -1.591156 1.848938c-0.87875366 0 -1.5911255 -0.8277893 -1.5911255 -1.848938m9.787323 0c0 -1.0211182 0.7123718 -1.8489075 1.5911255 -1.8489075c0.8787842 0 1.591156 0.8277893 1.591156 1.8489075c0 1.0211487 -0.7123718 1.848938 -1.591156 1.848938c-0.87875366 0 -1.5911255 -0.8277893 -1.5911255 -1.848938" fill-rule="evenodd"/><path stroke="#595959" stroke-width="1.0" stroke-linejoin="round" stroke-linecap="butt" d="m445.8422 317.01776q8.279144 6.6071167 16.53894 0" fill-rule="evenodd"/><path stroke="#595959" stroke-width="1.0" stroke-linejoin="round" stroke-linecap="butt" d="m438.84634 309.27704l0 0c0 -9.802826 6.8388367 -17.749573 15.274994 -17.749573c8.436157 0 15.274994 7.946747 15.274994 17.749573c0 9.802856 -6.8388367 17.749603 -15.274994 17.749603c-8.436157 0 -15.274994 -7.946747 -15.274994 -17.749603z" fill-rule="evenodd"/><path fill="#eeeeee" d="m438.62558 394.97534l-2.1826782 71.57193l12.656525 2.4074402l5.2388306 -51.124695l6.10849 52.325745l14.839203 -1.8042297l-3.9276733 -75.780975z" fill-rule="evenodd"/><path stroke="#595959" stroke-width="1.0" stroke-linejoin="round" stroke-linecap="butt" d="m438.62558 394.97534l-2.1826782 71.57193l12.656525 2.4074402l5.2388306 -51.124695l6.10849 52.325745l14.839203 -1.8042297l-3.9276733 -75.780975z" fill-rule="evenodd"/><path fill="#eeeeee" d="m447.49915 328.14948l6.3908386 4.9297485l7.7601624 -4.4374084l11.412384 1.479126l20.539856 37.967285l-9.585266 6.903351l-11.4123535 -23.668304l0.9135437 47.33441l-37.429535 0.49447632l0.91152954 -48.321198l-10.95459 24.160614l-9.585266 -6.903351l17.345428 -35.501343z" fill-rule="evenodd"/><path stroke="#595959" stroke-width="1.0" stroke-linejoin="round" stroke-linecap="butt" d="m447.49915 328.14948l6.3908386 4.9297485l7.7601624 -4.4374084l11.412384 1.479126l20.539856 37.967285l-9.585266 6.903351l-11.4123535 -23.668304l0.9135437 47.33441l-37.429535 0.49447632l0.91152954 -48.321198l-10.95459 24.160614l-9.585266 -6.903351l17.345428 -35.501343z" fill-rule="evenodd"/><path fill="#000000" fill-opacity="0.0" d="m423.78635 372.03113c-0.5058594 6.5823975 -1.7449951 13.116058 -1.7449951 19.723206" fill-rule="evenodd"/><path stroke="#595959" stroke-width="1.0" stroke-linejoin="round" stroke-linecap="butt" d="m423.78635 372.03113c-0.5058594 6.5823975 -1.7449951 13.116058 -1.7449951 19.723206" fill-rule="evenodd"/><path fill="#000000" fill-opacity="0.0" d="m487.9425 372.52563c1.1034241 5.4022827 2.3599854 10.782257 3.0561523 16.270447" fill-rule="evenodd"/><path stroke="#595959" stroke-width="1.0" stroke-linejoin="round" stroke-linecap="butt" d="m487.9425 372.52563c1.1034241 5.4022827 2.3599854 10.782257 3.0561523 16.270447" fill-rule="evenodd"/><path fill="#000000" fill-opacity="0.0" d="m427.05945 327.02664l59.012848 0l0 35.499176l-59.012848 0z" fill-rule="evenodd"/><path fill="#000000" d="m442.4582 347.46103q-1.09375 -0.40625 -1.625 -1.140625q-0.515625 -0.75 -0.515625 -1.78125q0 -1.5625 1.125 -2.625q1.125 -1.0625 2.984375 -1.0625q1.875 0 3.015625 1.09375q1.140625 1.078125 1.140625 2.640625q0 1.0 -0.53125 1.734375q-0.515625 0.734375 -1.578125 1.140625q1.328125 0.4375 2.015625 1.390625q0.6875 0.953125 0.6875 2.28125q0 1.84375 -1.3125 3.09375q-1.296875 1.25 -3.40625 1.25q-2.125 0 -3.421875 -1.25q-1.296875 -1.265625 -1.296875 -3.140625q0 -1.390625 0.703125 -2.328125q0.71875 -0.953125 2.015625 -1.296875zm-0.34375 -2.984375q0 1.015625 0.65625 1.671875q0.65625 0.640625 1.6875 0.640625q1.015625 0 1.671875 -0.640625q0.65625 -0.640625 0.65625 -1.5625q0 -0.96875 -0.671875 -1.625q-0.671875 -0.671875 -1.671875 -0.671875q-1.0 0 -1.671875 0.65625q-0.65625 0.640625 -0.65625 1.53125zm-0.5625 6.625q0 0.75 0.34375 1.453125q0.359375 0.703125 1.0625 1.09375q0.703125 0.375 1.515625 0.375q1.265625 0 2.078125 -0.8125q0.828125 -0.8125 0.828125 -2.0625q0 -1.265625 -0.84375 -2.09375q-0.84375 -0.828125 -2.125 -0.828125q-1.234375 0 -2.046875 0.828125q-0.8125 0.8125 -0.8125 2.046875zm9.326172 -2.9375q0 -2.53125 0.515625 -4.078125q0.53125 -1.5625 1.5625 -2.390625q1.03125 -0.84375 2.59375 -0.84375q1.15625 0 2.015625 0.46875q0.875 0.453125 1.4375 1.328125q0.5625 0.875 0.890625 2.140625q0.328125 1.25 0.328125 3.375q0 2.515625 -0.53125 4.0625q-0.515625 1.546875 -1.546875 2.40625q-1.015625 0.84375 -2.59375 0.84375q-2.078125 0 -3.25 -1.484375q-1.421875 -1.796875 -1.421875 -5.828125zm1.8125 0q0 3.53125 0.8125 4.703125q0.828125 1.15625 2.046875 1.15625q1.203125 0 2.03125 -1.171875q0.828125 -1.171875 0.828125 -4.6875q0 -3.53125 -0.828125 -4.6875q-0.828125 -1.171875 -2.046875 -1.171875q-1.21875 0 -1.9375 1.03125q-0.90625 1.296875 -0.90625 4.828125z" fill-rule="nonzero"/><path fill="#000000" d="m462.0324 347.2579q0 -1.125 0.5625 -1.90625q0.5625 -0.796875 1.640625 -0.796875q0.984375 0 1.625 0.703125q0.65625 0.703125 0.65625 2.078125q0 1.328125 -0.65625 2.046875q-0.65625 0.71875 -1.625 0.71875q-0.9375 0 -1.578125 -0.703125q-0.625 -0.71875 -0.625 -2.140625zm2.234375 -1.8125q-0.484375 0 -0.8125 0.421875q-0.3125 0.40625 -0.3125 1.515625q0 1.015625 0.328125 1.421875q0.328125 0.40625 0.796875 0.40625q0.484375 0 0.796875 -0.40625q0.328125 -0.421875 0.328125 -1.515625q0 -1.015625 -0.328125 -1.421875q-0.3125 -0.421875 -0.796875 -0.421875zm0 10.171875l5.75 -11.0625l1.046875 0l-5.71875 11.0625l-1.078125 0zm4.546875 -2.859375q0 -1.125 0.5625 -1.90625q0.5625 -0.78125 1.640625 -0.78125q0.984375 0 1.625 0.703125q0.65625 0.703125 0.65625 2.0625q0 1.34375 -0.65625 2.0625q-0.640625 0.71875 -1.609375 0.71875q-0.953125 0 -1.59375 -0.703125q-0.625 -0.71875 -0.625 -2.15625zm2.25 -1.796875q-0.5 0 -0.8125 0.421875q-0.3125 0.40625 -0.3125 1.515625q0 1.0 0.3125 1.421875q0.328125 0.40625 0.796875 0.40625q0.5 0 0.8125 -0.40625q0.3125 -0.421875 0.3125 -1.53125q0 -1.015625 -0.328125 -1.421875q-0.3125 -0.40625 -0.78125 -0.40625z" fill-rule="nonzero"/><path fill="#000000" fill-opacity="0.0" d="m557.651 465.1354c0 5.907959 -0.5614624 19.052734 6.5480347 16.976013c7.0360107 -2.0552673 1.6171265 -15.559387 -5.6745605 -16.976013" fill-rule="evenodd"/><path stroke="#595959" stroke-width="1.0" stroke-linejoin="round" stroke-linecap="butt" d="m557.651 465.1354c0 5.907959 -0.5614624 19.052734 6.5480347 16.976013c7.0360107 -2.0552673 1.6171265 -15.559387 -5.6745605 -16.976013" fill-rule="evenodd"/><path fill="#000000" fill-opacity="0.0" d="m534.3486 465.1354c0 5.907959 -0.56140137 19.052734 6.5480957 16.976013c7.0360107 -2.0552673 1.6171265 -15.559387 -5.6746216 -16.976013" fill-rule="evenodd"/><path stroke="#595959" stroke-width="1.0" stroke-linejoin="round" stroke-linecap="butt" d="m534.3486 465.1354c0 5.907959 -0.56140137 19.052734 6.5480957 16.976013c7.0360107 -2.0552673 1.6171265 -15.559387 -5.6746216 -16.976013" fill-rule="evenodd"/><path fill="#f9ffc0" d="m543.95087 321.6509l10.917297 0l0 17.257263l-10.917297 0z" fill-rule="evenodd"/><path stroke="#595959" stroke-width="1.0" stroke-linejoin="round" stroke-linecap="butt" d="m543.95087 321.6509l10.917297 0l0 17.257263l-10.917297 0z" fill-rule="evenodd"/><path fill="#f9ffc0" d="m534.1336 311.16095l0 0c0 -9.802826 6.838806 -17.749603 15.274963 -17.749603c8.436157 0 15.275024 7.9467773 15.275024 17.749603c0 9.802826 -6.838867 17.749573 -15.275024 17.749573c-8.436157 0 -15.274963 -7.946747 -15.274963 -17.749573z" fill-rule="evenodd"/><path fill="#c7cb99" d="m542.92377 305.8525c0 -1.0211182 0.71240234 -1.8489075 1.5911255 -1.8489075c0.8787842 0 1.5911865 0.8277893 1.5911865 1.8489075c0 1.0211182 -0.71240234 1.8489075 -1.5911865 1.8489075c-0.87872314 0 -1.5911255 -0.8277893 -1.5911255 -1.8489075m9.7872925 0c0 -1.0211182 0.71240234 -1.8489075 1.5911865 -1.8489075c0.87872314 0 1.5911255 0.8277893 1.5911255 1.8489075c0 1.0211182 -0.71240234 1.8489075 -1.5911255 1.8489075c-0.8787842 0 -1.5911865 -0.8277893 -1.5911865 -1.8489075" fill-rule="evenodd"/><path fill="#000000" fill-opacity="0.0" d="m541.12946 318.90167q8.279114 6.607086 16.53894 0" fill-rule="evenodd"/><path fill="#000000" fill-opacity="0.0" d="m534.1336 311.16095l0 0c0 -9.802826 6.838806 -17.749603 15.274963 -17.749603c8.436157 0 15.275024 7.9467773 15.275024 17.749603c0 9.802826 -6.838867 17.749573 -15.275024 17.749573c-8.436157 0 -15.274963 -7.946747 -15.274963 -17.749573z" fill-rule="evenodd"/><path stroke="#595959" stroke-width="1.0" stroke-linejoin="round" stroke-linecap="butt" d="m542.92377 305.8525c0 -1.0211182 0.71240234 -1.8489075 1.5911255 -1.8489075c0.8787842 0 1.5911865 0.8277893 1.5911865 1.8489075c0 1.0211182 -0.71240234 1.8489075 -1.5911865 1.8489075c-0.87872314 0 -1.5911255 -0.8277893 -1.5911255 -1.8489075m9.7872925 0c0 -1.0211182 0.71240234 -1.8489075 1.5911865 -1.8489075c0.87872314 0 1.5911255 0.8277893 1.5911255 1.8489075c0 1.0211182 -0.71240234 1.8489075 -1.5911255 1.8489075c-0.8787842 0 -1.5911865 -0.8277893 -1.5911865 -1.8489075" fill-rule="evenodd"/><path stroke="#595959" stroke-width="1.0" stroke-linejoin="round" stroke-linecap="butt" d="m541.12946 318.90167q8.279114 6.607086 16.53894 0" fill-rule="evenodd"/><path stroke="#595959" stroke-width="1.0" stroke-linejoin="round" stroke-linecap="butt" d="m534.1336 311.16095l0 0c0 -9.802826 6.838806 -17.749603 15.274963 -17.749603c8.436157 0 15.275024 7.9467773 15.275024 17.749603c0 9.802826 -6.838867 17.749573 -15.275024 17.749573c-8.436157 0 -15.274963 -7.946747 -15.274963 -17.749573z" fill-rule="evenodd"/><path fill="#eeeeee" d="m533.91284 396.85925l-2.1826782 71.57193l12.656494 2.4074097l5.2388306 -51.124695l6.1084595 52.325775l14.839233 -1.8042603l-3.9276733 -75.780945z" fill-rule="evenodd"/><path stroke="#595959" stroke-width="1.0" stroke-linejoin="round" stroke-linecap="butt" d="m533.91284 396.85925l-2.1826782 71.57193l12.656494 2.4074097l5.2388306 -51.124695l6.1084595 52.325775l14.839233 -1.8042603l-3.9276733 -75.780945z" fill-rule="evenodd"/><path fill="#eeeeee" d="m542.7864 330.0334l6.390869 4.929718l7.760132 -4.4374084l11.412415 1.4791565l20.539856 37.967255l-9.585266 6.903351l-11.412415 -23.668274l0.9135742 47.33438l-37.429565 0.49450684l0.91156006 -48.321228l-10.95459 24.160614l-9.585266 -6.903351l17.345459 -35.501312z" fill-rule="evenodd"/><path stroke="#595959" stroke-width="1.0" stroke-linejoin="round" stroke-linecap="butt" d="m542.7864 330.0334l6.390869 4.929718l7.760132 -4.4374084l11.412415 1.4791565l20.539856 37.967255l-9.585266 6.903351l-11.412415 -23.668274l0.9135742 47.33438l-37.429565 0.49450684l0.91156006 -48.321228l-10.95459 24.160614l-9.585266 -6.903351l17.345459 -35.501312z" fill-rule="evenodd"/><path fill="#000000" fill-opacity="0.0" d="m519.0736 373.91504c-0.5058594 6.5823975 -1.7449951 13.116028 -1.7449951 19.723206" fill-rule="evenodd"/><path stroke="#595959" stroke-width="1.0" stroke-linejoin="round" stroke-linecap="butt" d="m519.0736 373.91504c-0.5058594 6.5823975 -1.7449951 13.116028 -1.7449951 19.723206" fill-rule="evenodd"/><path fill="#000000" fill-opacity="0.0" d="m583.22974 374.40952c1.1033936 5.4022827 2.3599854 10.782257 3.0561523 16.270447" fill-rule="evenodd"/><path stroke="#595959" stroke-width="1.0" stroke-linejoin="round" stroke-linecap="butt" d="m583.22974 374.40952c1.1033936 5.4022827 2.3599854 10.782257 3.0561523 16.270447" fill-rule="evenodd"/><path fill="#000000" fill-opacity="0.0" d="m526.38043 328.90945l49.540527 0l0 35.499176l-49.540527 0z" fill-rule="evenodd"/><path fill="#000000" d="m537.05304 352.73572l1.578125 -0.140625q0.203125 1.109375 0.765625 1.609375q0.5625 0.5 1.453125 0.5q0.75 0 1.3125 -0.34375q0.578125 -0.34375 0.9375 -0.921875q0.375 -0.578125 0.609375 -1.5625q0.25 -0.984375 0.25 -2.0q0 -0.109375 0 -0.328125q-0.5 0.78125 -1.359375 1.265625q-0.84375 0.484375 -1.828125 0.484375q-1.671875 0 -2.8125 -1.203125q-1.140625 -1.203125 -1.140625 -3.171875q0 -2.03125 1.1875 -3.265625q1.203125 -1.234375 3.0 -1.234375q1.3125 0 2.390625 0.703125q1.078125 0.703125 1.640625 2.0q0.5625 1.296875 0.5625 3.75q0 2.5625 -0.5625 4.078125q-0.5625 1.515625 -1.65625 2.3125q-1.09375 0.796875 -2.578125 0.796875q-1.5625 0 -2.5625 -0.875q-0.984375 -0.875 -1.1875 -2.453125zm6.71875 -5.890625q0 -1.40625 -0.75 -2.234375q-0.75 -0.828125 -1.8125 -0.828125q-1.09375 0 -1.90625 0.890625q-0.8125 0.890625 -0.8125 2.3125q0 1.28125 0.765625 2.078125q0.78125 0.796875 1.90625 0.796875q1.140625 0 1.875 -0.796875q0.734375 -0.796875 0.734375 -2.21875zm3.4226074 2.390625q0 -2.359375 0.484375 -3.796875q0.484375 -1.453125 1.4375 -2.234375q0.96875 -0.78125 2.421875 -0.78125q1.078125 0 1.890625 0.4375q0.8125 0.421875 1.328125 1.25q0.53125 0.8125 0.828125 1.984375q0.3125 1.15625 0.3125 3.140625q0 2.359375 -0.484375 3.8125q-0.484375 1.4375 -1.453125 2.234375q-0.953125 0.78125 -2.421875 0.78125q-1.921875 0 -3.03125 -1.390625q-1.3125 -1.671875 -1.3125 -5.4375zm1.671875 0q0 3.296875 0.765625 4.390625q0.78125 1.078125 1.90625 1.078125q1.140625 0 1.90625 -1.09375q0.765625 -1.09375 0.765625 -4.375q0 -3.296875 -0.765625 -4.375q-0.765625 -1.078125 -1.921875 -1.078125q-1.125 0 -1.796875 0.953125q-0.859375 1.21875 -0.859375 4.5z" fill-rule="nonzero"/><path fill="#000000" d="m557.4139 350.0326q0 -0.8125 0.40625 -1.390625q0.40625 -0.578125 1.1875 -0.578125q0.71875 0 1.1875 0.515625q0.46875 0.515625 0.46875 1.515625q0 0.96875 -0.484375 1.5q-0.46875 0.515625 -1.15625 0.515625q-0.6875 0 -1.15625 -0.515625q-0.453125 -0.515625 -0.453125 -1.5625zm1.625 -1.3125q-0.34375 0 -0.578125 0.296875q-0.234375 0.296875 -0.234375 1.109375q0 0.734375 0.234375 1.03125q0.234375 0.296875 0.578125 0.296875q0.359375 0 0.578125 -0.296875q0.234375 -0.296875 0.234375 -1.109375q0 -0.734375 -0.234375 -1.03125q-0.234375 -0.296875 -0.578125 -0.296875zm0 7.390625l4.171875 -8.046875l0.765625 0l-4.15625 8.046875l-0.78125 0zm3.296875 -2.078125q0 -0.8125 0.40625 -1.375q0.421875 -0.578125 1.203125 -0.578125q0.71875 0 1.1875 0.515625q0.46875 0.515625 0.46875 1.5q0 0.96875 -0.46875 1.5q-0.46875 0.515625 -1.171875 0.515625q-0.703125 0 -1.171875 -0.515625q-0.453125 -0.515625 -0.453125 -1.5625zm1.640625 -1.3125q-0.359375 0 -0.59375 0.3125q-0.21875 0.296875 -0.21875 1.09375q0 0.734375 0.234375 1.046875q0.234375 0.296875 0.578125 0.296875q0.359375 0 0.578125 -0.296875q0.234375 -0.3125 0.234375 -1.109375q0 -0.75 -0.234375 -1.046875q-0.234375 -0.296875 -0.578125 -0.296875z" fill-rule="nonzero"/><path fill="#000000" fill-opacity="0.0" d="m704.7455 235.03568c0 5.9079437 -0.5614624 19.05275 6.5480957 16.975998c7.0359497 -2.0552673 1.6170654 -15.559387 -5.6746216 -16.975998" fill-rule="evenodd"/><path stroke="#595959" stroke-width="1.0" stroke-linejoin="round" stroke-linecap="butt" d="m704.7455 235.03568c0 5.9079437 -0.5614624 19.05275 6.5480957 16.975998c7.0359497 -2.0552673 1.6170654 -15.559387 -5.6746216 -16.975998" fill-rule="evenodd"/><path fill="#000000" fill-opacity="0.0" d="m681.44305 235.03568c0 5.9079437 -0.56140137 19.05275 6.5480957 16.975998c7.0360107 -2.0552673 1.6171265 -15.559387 -5.6746216 -16.975998" fill-rule="evenodd"/><path stroke="#595959" stroke-width="1.0" stroke-linejoin="round" stroke-linecap="butt" d="m681.44305 235.03568c0 5.9079437 -0.56140137 19.05275 6.5480957 16.975998c7.0360107 -2.0552673 1.6171265 -15.559387 -5.6746216 -16.975998" fill-rule="evenodd"/><path fill="#f9ffc0" d="m691.0454 91.55118l10.917236 0l0 17.257263l-10.917236 0z" fill-rule="evenodd"/><path stroke="#595959" stroke-width="1.0" stroke-linejoin="round" stroke-linecap="butt" d="m691.0454 91.55118l10.917236 0l0 17.257263l-10.917236 0z" fill-rule="evenodd"/><path fill="#f9ffc0" d="m681.2281 81.06121l0 0c0 -9.802826 6.838806 -17.749592 15.274963 -17.749592c8.436157 0 15.275024 7.946766 15.275024 17.749592c0 9.802826 -6.838867 17.749588 -15.275024 17.749588c-8.436157 0 -15.274963 -7.946762 -15.274963 -17.749588z" fill-rule="evenodd"/><path fill="#c7cb99" d="m690.01825 75.75277c0 -1.0211334 0.71240234 -1.8489151 1.5911865 -1.8489151c0.87872314 0 1.5911255 0.8277817 1.5911255 1.8489151c0 1.0211258 -0.71240234 1.8489151 -1.5911255 1.8489151c-0.8787842 0 -1.5911865 -0.8277893 -1.5911865 -1.8489151m9.7873535 0c0 -1.0211334 0.7123413 -1.8489151 1.5911255 -1.8489151c0.8787842 0 1.5911255 0.8277817 1.5911255 1.8489151c0 1.0211258 -0.7123413 1.8489151 -1.5911255 1.8489151c-0.8787842 0 -1.5911255 -0.8277893 -1.5911255 -1.8489151" fill-rule="evenodd"/><path fill="#000000" fill-opacity="0.0" d="m688.22394 89.90737q8.279114 2.1853256 16.53894 0" fill-rule="evenodd"/><path fill="#000000" fill-opacity="0.0" d="m681.2281 81.06121l0 0c0 -9.802826 6.838806 -17.749592 15.274963 -17.749592c8.436157 0 15.275024 7.946766 15.275024 17.749592c0 9.802826 -6.838867 17.749588 -15.275024 17.749588c-8.436157 0 -15.274963 -7.946762 -15.274963 -17.749588z" fill-rule="evenodd"/><path stroke="#595959" stroke-width="1.0" stroke-linejoin="round" stroke-linecap="butt" d="m690.01825 75.75277c0 -1.0211334 0.71240234 -1.8489151 1.5911865 -1.8489151c0.87872314 0 1.5911255 0.8277817 1.5911255 1.8489151c0 1.0211258 -0.71240234 1.8489151 -1.5911255 1.8489151c-0.8787842 0 -1.5911865 -0.8277893 -1.5911865 -1.8489151m9.7873535 0c0 -1.0211334 0.7123413 -1.8489151 1.5911255 -1.8489151c0.8787842 0 1.5911255 0.8277817 1.5911255 1.8489151c0 1.0211258 -0.7123413 1.8489151 -1.5911255 1.8489151c-0.8787842 0 -1.5911255 -0.8277893 -1.5911255 -1.8489151" fill-rule="evenodd"/><path stroke="#595959" stroke-width="1.0" stroke-linejoin="round" stroke-linecap="butt" d="m688.22394 89.90737q8.279114 2.1853256 16.53894 0" fill-rule="evenodd"/><path stroke="#595959" stroke-width="1.0" stroke-linejoin="round" stroke-linecap="butt" d="m681.2281 81.06121l0 0c0 -9.802826 6.838806 -17.749592 15.274963 -17.749592c8.436157 0 15.275024 7.946766 15.275024 17.749592c0 9.802826 -6.838867 17.749588 -15.275024 17.749588c-8.436157 0 -15.274963 -7.946762 -15.274963 -17.749588z" fill-rule="evenodd"/><path fill="#eeeeee" d="m681.0073 166.7595l-2.1826782 71.57193l12.656494 2.407425l5.2388306 -51.124695l6.1085205 52.32576l14.839172 -1.804245l-3.9276733 -75.78096z" fill-rule="evenodd"/><path stroke="#595959" stroke-width="1.0" stroke-linejoin="round" stroke-linecap="butt" d="m681.0073 166.7595l-2.1826782 71.57193l12.656494 2.407425l5.2388306 -51.124695l6.1085205 52.32576l14.839172 -1.804245l-3.9276733 -75.78096z" fill-rule="evenodd"/><path fill="#eeeeee" d="m689.88086 99.93365l6.390869 4.929718l7.760132 -4.437393l11.412415 1.4791336l20.539856 37.967285l-9.585266 6.9033356l-11.4123535 -23.668282l0.9135132 47.334404l-37.429504 0.49447632l0.911499 -48.321205l-10.95459 24.160606l-9.585266 -6.9033356l17.345459 -35.50135z" fill-rule="evenodd"/><path stroke="#595959" stroke-width="1.0" stroke-linejoin="round" stroke-linecap="butt" d="m689.88086 99.93365l6.390869 4.929718l7.760132 -4.437393l11.412415 1.4791336l20.539856 37.967285l-9.585266 6.9033356l-11.4123535 -23.668282l0.9135132 47.334404l-37.429504 0.49447632l0.911499 -48.321205l-10.95459 24.160606l-9.585266 -6.9033356l17.345459 -35.50135z" fill-rule="evenodd"/><path fill="#000000" fill-opacity="0.0" d="m666.1681 143.81529c-0.5058594 6.5823975 -1.7449951 13.116043 -1.7449951 19.723206" fill-rule="evenodd"/><path stroke="#595959" stroke-width="1.0" stroke-linejoin="round" stroke-linecap="butt" d="m666.1681 143.81529c-0.5058594 6.5823975 -1.7449951 13.116043 -1.7449951 19.723206" fill-rule="evenodd"/><path fill="#000000" fill-opacity="0.0" d="m730.3242 144.30978c1.1034546 5.4022827 2.3599854 10.782257 3.0561523 16.270462" fill-rule="evenodd"/><path stroke="#595959" stroke-width="1.0" stroke-linejoin="round" stroke-linecap="butt" d="m730.3242 144.30978c1.1034546 5.4022827 2.3599854 10.782257 3.0561523 16.270462" fill-rule="evenodd"/><path fill="#000000" fill-opacity="0.0" d="m673.4749 98.80972l49.540527 0l0 35.499176l-49.540527 0z" fill-rule="evenodd"/><path fill="#000000" d="m683.91315 122.22972l1.71875 -0.140625q0.1875 1.25 0.875 1.890625q0.703125 0.625 1.6875 0.625q1.1875 0 2.0 -0.890625q0.828125 -0.890625 0.828125 -2.359375q0 -1.40625 -0.796875 -2.21875q-0.78125 -0.8125 -2.0625 -0.8125q-0.78125 0 -1.421875 0.359375q-0.640625 0.359375 -1.0 0.9375l-1.546875 -0.203125l1.296875 -6.859375l6.640625 0l0 1.5625l-5.328125 0l-0.71875 3.59375q1.203125 -0.84375 2.515625 -0.84375q1.75 0 2.953125 1.21875q1.203125 1.203125 1.203125 3.109375q0 1.8125 -1.046875 3.140625q-1.296875 1.625 -3.515625 1.625q-1.8125 0 -2.96875 -1.015625q-1.15625 -1.03125 -1.3125 -2.71875zm10.375732 -3.09375q0 -2.359375 0.484375 -3.796875q0.484375 -1.453125 1.4375 -2.234375q0.96875 -0.78125 2.421875 -0.78125q1.078125 0 1.890625 0.4375q0.8125 0.421875 1.328125 1.25q0.53125 0.8125 0.828125 1.984375q0.3125 1.15625 0.3125 3.140625q0 2.359375 -0.484375 3.8125q-0.484375 1.4375 -1.453125 2.234375q-0.953125 0.78125 -2.421875 0.78125q-1.921875 0 -3.03125 -1.390625q-1.3125 -1.671875 -1.3125 -5.4375zm1.671875 0q0 3.296875 0.765625 4.390625q0.78125 1.078125 1.90625 1.078125q1.140625 0 1.90625 -1.09375q0.765625 -1.09375 0.765625 -4.375q0 -3.296875 -0.765625 -4.375q-0.765625 -1.078125 -1.921875 -1.078125q-1.125 0 -1.796875 0.953125q-0.859375 1.21875 -0.859375 4.5z" fill-rule="nonzero"/><path fill="#000000" d="m704.50836 119.932846q0 -0.8125 0.40625 -1.390625q0.40625 -0.578125 1.1875 -0.578125q0.71875 0 1.1875 0.515625q0.46875 0.515625 0.46875 1.515625q0 0.96875 -0.484375 1.5q-0.46875 0.515625 -1.15625 0.515625q-0.6875 0 -1.15625 -0.515625q-0.453125 -0.515625 -0.453125 -1.5625zm1.625 -1.3125q-0.34375 0 -0.578125 0.296875q-0.234375 0.296875 -0.234375 1.109375q0 0.734375 0.234375 1.03125q0.234375 0.296875 0.578125 0.296875q0.359375 0 0.578125 -0.296875q0.234375 -0.296875 0.234375 -1.109375q0 -0.734375 -0.234375 -1.03125q-0.234375 -0.296875 -0.578125 -0.296875zm0 7.390625l4.171875 -8.046875l0.765625 0l-4.15625 8.046875l-0.78125 0zm3.296875 -2.078125q0 -0.8125 0.40625 -1.375q0.421875 -0.578125 1.203125 -0.578125q0.71875 0 1.1875 0.515625q0.46875 0.515625 0.46875 1.5q0 0.96875 -0.46875 1.5q-0.46875 0.515625 -1.171875 0.515625q-0.703125 0 -1.171875 -0.515625q-0.453125 -0.515625 -0.453125 -1.5625zm1.640625 -1.3125q-0.359375 0 -0.59375 0.3125q-0.21875 0.296875 -0.21875 1.09375q0 0.734375 0.234375 1.046875q0.234375 0.296875 0.578125 0.296875q0.359375 0 0.578125 -0.296875q0.234375 -0.3125 0.234375 -1.109375q0 -0.75 -0.234375 -1.046875q-0.234375 -0.296875 -0.578125 -0.296875z" fill-rule="nonzero"/><path fill="#000000" fill-opacity="0.0" d="m663.5513 464.18134c0 5.907959 -0.5614624 19.052765 6.5480347 16.976013c7.0360107 -2.0552673 1.6171265 -15.559387 -5.6745605 -16.976013" fill-rule="evenodd"/><path stroke="#595959" stroke-width="1.0" stroke-linejoin="round" stroke-linecap="butt" d="m663.5513 464.18134c0 5.907959 -0.5614624 19.052765 6.5480347 16.976013c7.0360107 -2.0552673 1.6171265 -15.559387 -5.6745605 -16.976013" fill-rule="evenodd"/><path fill="#000000" fill-opacity="0.0" d="m640.24884 464.18134c0 5.907959 -0.56140137 19.052765 6.5480957 16.976013c7.0360107 -2.0552673 1.6170654 -15.559387 -5.6746216 -16.976013" fill-rule="evenodd"/><path stroke="#595959" stroke-width="1.0" stroke-linejoin="round" stroke-linecap="butt" d="m640.24884 464.18134c0 5.907959 -0.56140137 19.052765 6.5480957 16.976013c7.0360107 -2.0552673 1.6170654 -15.559387 -5.6746216 -16.976013" fill-rule="evenodd"/><path fill="#f9ffc0" d="m649.85114 320.69684l10.917297 0l0 17.257263l-10.917297 0z" fill-rule="evenodd"/><path stroke="#595959" stroke-width="1.0" stroke-linejoin="round" stroke-linecap="butt" d="m649.85114 320.69684l10.917297 0l0 17.257263l-10.917297 0z" fill-rule="evenodd"/><path fill="#f9ffc0" d="m640.0338 310.20688l0 0c0 -9.802826 6.838867 -17.749603 15.275024 -17.749603c8.436157 0 15.275024 7.9467773 15.275024 17.749603c0 9.802826 -6.838867 17.749603 -15.275024 17.749603c-8.436157 0 -15.275024 -7.9467773 -15.275024 -17.749603z" fill-rule="evenodd"/><path fill="#c7cb99" d="m648.82404 304.89844c0 -1.0211182 0.71240234 -1.8489075 1.5911255 -1.8489075c0.8787842 0 1.5911865 0.8277893 1.5911865 1.8489075c0 1.0211182 -0.71240234 1.8489075 -1.5911865 1.8489075c-0.87872314 0 -1.5911255 -0.8277893 -1.5911255 -1.8489075m9.7872925 0c0 -1.0211182 0.71240234 -1.8489075 1.5911865 -1.8489075c0.87872314 0 1.5911255 0.8277893 1.5911255 1.8489075c0 1.0211182 -0.71240234 1.8489075 -1.5911255 1.8489075c-0.8787842 0 -1.5911865 -0.8277893 -1.5911865 -1.8489075" fill-rule="evenodd"/><path fill="#000000" fill-opacity="0.0" d="m647.02966 317.9476q8.279175 6.607086 16.539001 0" fill-rule="evenodd"/><path fill="#000000" fill-opacity="0.0" d="m640.0338 310.20688l0 0c0 -9.802826 6.838867 -17.749603 15.275024 -17.749603c8.436157 0 15.275024 7.9467773 15.275024 17.749603c0 9.802826 -6.838867 17.749603 -15.275024 17.749603c-8.436157 0 -15.275024 -7.9467773 -15.275024 -17.749603z" fill-rule="evenodd"/><path stroke="#595959" stroke-width="1.0" stroke-linejoin="round" stroke-linecap="butt" d="m648.82404 304.89844c0 -1.0211182 0.71240234 -1.8489075 1.5911255 -1.8489075c0.8787842 0 1.5911865 0.8277893 1.5911865 1.8489075c0 1.0211182 -0.71240234 1.8489075 -1.5911865 1.8489075c-0.87872314 0 -1.5911255 -0.8277893 -1.5911255 -1.8489075m9.7872925 0c0 -1.0211182 0.71240234 -1.8489075 1.5911865 -1.8489075c0.87872314 0 1.5911255 0.8277893 1.5911255 1.8489075c0 1.0211182 -0.71240234 1.8489075 -1.5911255 1.8489075c-0.8787842 0 -1.5911865 -0.8277893 -1.5911865 -1.8489075" fill-rule="evenodd"/><path stroke="#595959" stroke-width="1.0" stroke-linejoin="round" stroke-linecap="butt" d="m647.02966 317.9476q8.279175 6.607086 16.539001 0" fill-rule="evenodd"/><path stroke="#595959" stroke-width="1.0" stroke-linejoin="round" stroke-linecap="butt" d="m640.0338 310.20688l0 0c0 -9.802826 6.838867 -17.749603 15.275024 -17.749603c8.436157 0 15.275024 7.9467773 15.275024 17.749603c0 9.802826 -6.838867 17.749603 -15.275024 17.749603c-8.436157 0 -15.275024 -7.9467773 -15.275024 -17.749603z" fill-rule="evenodd"/><path fill="#eeeeee" d="m639.8131 395.90518l-2.1827393 71.57193l12.656555 2.4074097l5.2388306 -51.124695l6.1084595 52.325775l14.839233 -1.8042603l-3.9276733 -75.780945z" fill-rule="evenodd"/><path stroke="#595959" stroke-width="1.0" stroke-linejoin="round" stroke-linecap="butt" d="m639.8131 395.90518l-2.1827393 71.57193l12.656555 2.4074097l5.2388306 -51.124695l6.1084595 52.325775l14.839233 -1.8042603l-3.9276733 -75.780945z" fill-rule="evenodd"/><path fill="#eeeeee" d="m648.68665 329.0793l6.390869 4.929718l7.760132 -4.4374084l11.412415 1.4791565l20.539856 37.967285l-9.585266 6.9033203l-11.412415 -23.668274l0.9135742 47.33441l-37.429565 0.49447632l0.91156006 -48.321228l-10.95459 24.160614l-9.585266 -6.9033203l17.345459 -35.501343z" fill-rule="evenodd"/><path stroke="#595959" stroke-width="1.0" stroke-linejoin="round" stroke-linecap="butt" d="m648.68665 329.0793l6.390869 4.929718l7.760132 -4.4374084l11.412415 1.4791565l20.539856 37.967285l-9.585266 6.9033203l-11.412415 -23.668274l0.9135742 47.33441l-37.429565 0.49447632l0.91156006 -48.321228l-10.95459 24.160614l-9.585266 -6.9033203l17.345459 -35.501343z" fill-rule="evenodd"/><path fill="#000000" fill-opacity="0.0" d="m624.9739 372.96097c-0.5058594 6.5823975 -1.7449951 13.116028 -1.7449951 19.723206" fill-rule="evenodd"/><path stroke="#595959" stroke-width="1.0" stroke-linejoin="round" stroke-linecap="butt" d="m624.9739 372.96097c-0.5058594 6.5823975 -1.7449951 13.116028 -1.7449951 19.723206" fill-rule="evenodd"/><path fill="#000000" fill-opacity="0.0" d="m689.13 373.45544c1.1033936 5.402313 2.3599854 10.782257 3.0561523 16.270477" fill-rule="evenodd"/><path stroke="#595959" stroke-width="1.0" stroke-linejoin="round" stroke-linecap="butt" d="m689.13 373.45544c1.1033936 5.402313 2.3599854 10.782257 3.0561523 16.270477" fill-rule="evenodd"/><path fill="#000000" fill-opacity="0.0" d="m629.2192 327.95538l55.664307 0l0 35.499176l-55.664307 0z" fill-rule="evenodd"/><path fill="#000000" d="m646.1158 352.31537l-1.40625 0l0 -8.96875q-0.515625 0.484375 -1.34375 0.96875q-0.8125 0.484375 -1.46875 0.734375l0 -1.359375q1.171875 -0.5625 2.046875 -1.34375q0.890625 -0.796875 1.265625 -1.53125l0.90625 0l0 11.5zm3.6015625 -5.65625q0 -2.03125 0.40625 -3.265625q0.421875 -1.234375 1.25 -1.90625q0.828125 -0.671875 2.078125 -0.671875q0.921875 0 1.609375 0.375q0.703125 0.359375 1.15625 1.0625q0.453125 0.703125 0.703125 1.703125q0.265625 1.0 0.265625 2.703125q0 2.015625 -0.421875 3.265625q-0.40625 1.234375 -1.234375 1.921875q-0.828125 0.671875 -2.078125 0.671875q-1.65625 0 -2.609375 -1.203125q-1.125 -1.421875 -1.125 -4.65625zm1.4375 0q0 2.828125 0.65625 3.765625q0.671875 0.921875 1.640625 0.921875q0.96875 0 1.625 -0.9375q0.65625 -0.9375 0.65625 -3.75q0 -2.828125 -0.65625 -3.75q-0.65625 -0.9375 -1.640625 -0.9375q-0.96875 0 -1.546875 0.828125q-0.734375 1.046875 -0.734375 3.859375zm7.4609375 0q0 -2.03125 0.40625 -3.265625q0.421875 -1.234375 1.25 -1.90625q0.828125 -0.671875 2.078125 -0.671875q0.921875 0 1.609375 0.375q0.703125 0.359375 1.15625 1.0625q0.453125 0.703125 0.703125 1.703125q0.265625 1.0 0.265625 2.703125q0 2.015625 -0.421875 3.265625q-0.40625 1.234375 -1.234375 1.921875q-0.828125 0.671875 -2.078125 0.671875q-1.65625 0 -2.609375 -1.203125q-1.125 -1.421875 -1.125 -4.65625zm1.4375 0q0 2.828125 0.65625 3.765625q0.671875 0.921875 1.640625 0.921875q0.96875 0 1.625 -0.9375q0.65625 -0.9375 0.65625 -3.75q0 -2.828125 -0.65625 -3.75q-0.65625 -0.9375 -1.640625 -0.9375q-0.96875 0 -1.546875 0.828125q-0.734375 1.046875 -0.734375 3.859375z" fill-rule="nonzero"/><path fill="#000000" d="m667.3111 347.956q0 -0.609375 0.296875 -1.03125q0.3125 -0.4375 0.90625 -0.4375q0.53125 0 0.890625 0.390625q0.359375 0.375 0.359375 1.125q0 0.734375 -0.359375 1.125q-0.359375 0.390625 -0.890625 0.390625q-0.515625 0 -0.859375 -0.390625q-0.34375 -0.390625 -0.34375 -1.171875zm1.21875 -0.984375q-0.265625 0 -0.4375 0.234375q-0.171875 0.21875 -0.171875 0.828125q0 0.546875 0.171875 0.78125q0.1875 0.21875 0.4375 0.21875q0.265625 0 0.4375 -0.21875q0.171875 -0.234375 0.171875 -0.84375q0 -0.546875 -0.171875 -0.765625q-0.171875 -0.234375 -0.4375 -0.234375zm0 5.5625l3.140625 -6.046875l0.5625 0l-3.109375 6.046875l-0.59375 0zm2.484375 -1.5625q0 -0.625 0.296875 -1.046875q0.3125 -0.421875 0.90625 -0.421875q0.546875 0 0.890625 0.390625q0.359375 0.375 0.359375 1.125q0 0.71875 -0.359375 1.125q-0.359375 0.390625 -0.890625 0.390625q-0.515625 0 -0.859375 -0.390625q-0.34375 -0.390625 -0.34375 -1.171875zm1.21875 -0.984375q-0.265625 0 -0.4375 0.234375q-0.171875 0.21875 -0.171875 0.8125q0 0.546875 0.171875 0.78125q0.1875 0.21875 0.4375 0.21875q0.265625 0 0.4375 -0.21875q0.1875 -0.234375 0.1875 -0.828125q0 -0.5625 -0.1875 -0.78125q-0.171875 -0.21875 -0.4375 -0.21875z" fill-rule="nonzero"/><path fill="#93c47d" d="m436.28348 228.0609l11.943665 0l0 27.250748l-11.943665 0z" fill-rule="evenodd"/><path fill="#759c63" d="m448.22714 228.0609l12.119324 -12.119324l0 27.250748l-12.119324 12.119324z" fill-rule="evenodd"/><path fill="#a8cf97" d="m436.28348 228.0609l12.119324 -12.119324l11.943665 0l-12.119324 12.119324z" fill-rule="evenodd"/><path fill="#000000" fill-opacity="0.0" d="m436.28348 228.0609l12.119324 -12.119324l11.943665 0l0 27.250748l-12.119324 12.119324l-11.943665 0zm0 0l11.943665 0l12.119324 -12.119324m-12.119324 12.119324l0 27.250748" fill-rule="evenodd"/><path stroke="#595959" stroke-width="1.0" stroke-linejoin="round" stroke-linecap="butt" d="m436.28348 228.0609l12.119324 -12.119324l11.943665 0l0 27.250748l-12.119324 12.119324l-11.943665 0zm0 0l11.943665 0l12.119324 -12.119324m-12.119324 12.119324l0 27.250748" fill-rule="evenodd"/><path fill="#93c47d" d="m534.65356 205.11697l11.943665 0l0 50.21138l-11.943665 0z" fill-rule="evenodd"/><path fill="#759c63" d="m546.5972 205.11697l12.119324 -12.119324l0 50.21138l-12.119324 12.119324z" fill-rule="evenodd"/><path fill="#a8cf97" d="m534.65356 205.11697l12.119324 -12.119324l11.943665 0l-12.119324 12.119324z" fill-rule="evenodd"/><path fill="#000000" fill-opacity="0.0" d="m534.65356 205.11697l12.119324 -12.119324l11.943665 0l0 50.21138l-12.119324 12.119324l-11.943665 0zm0 0l11.943665 0l12.119324 -12.119324m-12.119324 12.119324l0 50.21138" fill-rule="evenodd"/><path stroke="#595959" stroke-width="1.0" stroke-linejoin="round" stroke-linecap="butt" d="m534.65356 205.11697l12.119324 -12.119324l11.943665 0l0 50.21138l-12.119324 12.119324l-11.943665 0zm0 0l11.943665 0l12.119324 -12.119324m-12.119324 12.119324l0 50.21138" fill-rule="evenodd"/><path fill="#93c47d" d="m628.8819 192.79922l11.943665 0l0 62.526337l-11.943665 0z" fill-rule="evenodd"/><path fill="#759c63" d="m640.82556 192.79922l12.119324 -12.119324l0 62.526337l-12.119324 12.119324z" fill-rule="evenodd"/><path fill="#a8cf97" d="m628.8819 192.79922l12.119324 -12.119324l11.943665 0l-12.119324 12.119324z" fill-rule="evenodd"/><path fill="#000000" fill-opacity="0.0" d="m628.8819 192.79922l12.119324 -12.119324l11.943665 0l0 62.526337l-12.119324 12.119324l-11.943665 0zm0 0l11.943665 0l12.119324 -12.119324m-12.119324 12.119324l0 62.526337" fill-rule="evenodd"/><path stroke="#595959" stroke-width="1.0" stroke-linejoin="round" stroke-linecap="butt" d="m628.8819 192.79922l12.119324 -12.119324l11.943665 0l0 62.526337l-12.119324 12.119324l-11.943665 0zm0 0l11.943665 0l12.119324 -12.119324m-12.119324 12.119324l0 62.526337" fill-rule="evenodd"/><path fill="#93c47d" d="m723.11487 174.00311l11.941772 0l0 81.190994l-11.941772 0z" fill-rule="evenodd"/><path fill="#759c63" d="m735.05664 174.00311l12.117493 -12.117447l0 81.19098l-12.117493 12.117462z" fill-rule="evenodd"/><path fill="#a8cf97" d="m723.11487 174.00311l12.117432 -12.117447l11.9418335 0l-12.117493 12.117447z" fill-rule="evenodd"/><path fill="#000000" fill-opacity="0.0" d="m723.11487 174.00311l12.117432 -12.117447l11.9418335 0l0 81.19098l-12.117493 12.117462l-11.941772 0zm0 0l11.941772 0l12.117493 -12.117447m-12.117493 12.117447l0 81.190994" fill-rule="evenodd"/><path stroke="#595959" stroke-width="1.0" stroke-linejoin="round" stroke-linecap="butt" d="m723.11487 174.00311l12.117432 -12.117447l11.9418335 0l0 81.19098l-12.117493 12.117462l-11.941772 0zm0 0l11.941772 0l12.117493 -12.117447m-12.117493 12.117447l0 81.190994" fill-rule="evenodd"/><path fill="#93c47d" d="m295.41208 385.11914l11.943665 0l0 96.03815l-11.943665 0z" fill-rule="evenodd"/><path fill="#759c63" d="m307.35574 385.11914l12.119324 -12.119324l0 96.03815l-12.119324 12.119324z" fill-rule="evenodd"/><path fill="#a8cf97" d="m295.41208 385.11914l12.119324 -12.119324l11.943665 0l-12.119324 12.119324z" fill-rule="evenodd"/><path fill="#000000" fill-opacity="0.0" d="m295.41208 385.11914l12.119324 -12.119324l11.943665 0l0 96.03815l-12.119324 12.119324l-11.943665 0zm0 0l11.943665 0l12.119324 -12.119324m-12.119324 12.119324l0 96.03815" fill-rule="evenodd"/><path stroke="#595959" stroke-width="1.0" stroke-linejoin="round" stroke-linecap="butt" d="m295.41208 385.11914l12.119324 -12.119324l11.943665 0l0 96.03815l-12.119324 12.119324l-11.943665 0zm0 0l11.943665 0l12.119324 -12.119324m-12.119324 12.119324l0 96.03815" fill-rule="evenodd"/><path fill="#93c47d" d="m387.4882 364.11887l11.943665 0l0 118.431854l-11.943665 0z" fill-rule="evenodd"/><path fill="#759c63" d="m399.43185 364.11887l12.119324 -12.119324l0 118.431854l-12.119324 12.119324z" fill-rule="evenodd"/><path fill="#a8cf97" d="m387.4882 364.11887l12.119324 -12.119324l11.943665 0l-12.119324 12.119324z" fill-rule="evenodd"/><path fill="#000000" fill-opacity="0.0" d="m387.4882 364.11887l12.119324 -12.119324l11.943665 0l0 118.431854l-12.119324 12.119324l-11.943665 0zm0 0l11.943665 0l12.119324 -12.119324m-12.119324 12.119324l0 118.431854" fill-rule="evenodd"/><path stroke="#595959" stroke-width="1.0" stroke-linejoin="round" stroke-linecap="butt" d="m387.4882 364.11887l12.119324 -12.119324l11.943665 0l0 118.431854l-12.119324 12.119324l-11.943665 0zm0 0l11.943665 0l12.119324 -12.119324m-12.119324 12.119324l0 118.431854" fill-rule="evenodd"/><path fill="#93c47d" d="m482.13123 340.11856l11.943665 0l0 142.43185l-11.943665 0z" fill-rule="evenodd"/><path fill="#759c63" d="m494.0749 340.11856l12.119324 -12.119324l0 142.43185l-12.119324 12.119324z" fill-rule="evenodd"/><path fill="#a8cf97" d="m482.13123 340.11856l12.119324 -12.119324l11.943665 0l-12.119324 12.119324z" fill-rule="evenodd"/><path fill="#000000" fill-opacity="0.0" d="m482.13123 340.11856l12.119324 -12.119324l11.943665 0l0 142.43185l-12.119324 12.119324l-11.943665 0zm0 0l11.943665 0l12.119324 -12.119324m-12.119324 12.119324l0 142.43185" fill-rule="evenodd"/><path stroke="#595959" stroke-width="1.0" stroke-linejoin="round" stroke-linecap="butt" d="m482.13123 340.11856l12.119324 -12.119324l11.943665 0l0 142.43185l-12.119324 12.119324l-11.943665 0zm0 0l11.943665 0l12.119324 -12.119324m-12.119324 12.119324l0 142.43185" fill-rule="evenodd"/><path fill="#93c47d" d="m584.03674 322.11838l11.943665 0l0 159.06177l-11.943665 0z" fill-rule="evenodd"/><path fill="#759c63" d="m595.9804 322.11838l12.119324 -12.119354l0 159.0618l-12.119324 12.119324z" fill-rule="evenodd"/><path fill="#a8cf97" d="m584.03674 322.11838l12.119324 -12.119354l11.943665 0l-12.119324 12.119354z" fill-rule="evenodd"/><path fill="#000000" fill-opacity="0.0" d="m584.03674 322.11838l12.119324 -12.119354l11.943665 0l0 159.0618l-12.119324 12.119324l-11.943665 0zm0 0l11.943665 0l12.119324 -12.119354m-12.119324 12.119354l0 159.06177" fill-rule="evenodd"/><path stroke="#595959" stroke-width="1.0" stroke-linejoin="round" stroke-linecap="butt" d="m584.03674 322.11838l12.119324 -12.119354l11.943665 0l0 159.0618l-12.119324 12.119324l-11.943665 0zm0 0l11.943665 0l12.119324 -12.119354m-12.119324 12.119354l0 159.06177" fill-rule="evenodd"/><path fill="#93c47d" d="m698.53284 299.11807l11.943665 0l0 181.39249l-11.943665 0z" fill-rule="evenodd"/><path fill="#759c63" d="m710.4765 299.11807l12.119324 -12.119324l0 181.39249l-12.119324 12.119324z" fill-rule="evenodd"/><path fill="#a8cf97" d="m698.53284 299.11807l12.119324 -12.119324l11.943665 0l-12.119324 12.119324z" fill-rule="evenodd"/><path fill="#000000" fill-opacity="0.0" d="m698.53284 299.11807l12.119324 -12.119324l11.943665 0l0 181.39249l-12.119324 12.119324l-11.943665 0zm0 0l11.943665 0l12.119324 -12.119324m-12.119324 12.119324l0 181.39249" fill-rule="evenodd"/><path stroke="#595959" stroke-width="1.0" stroke-linejoin="round" stroke-linecap="butt" d="m698.53284 299.11807l12.119324 -12.119324l11.943665 0l0 181.39249l-12.119324 12.119324l-11.943665 0zm0 0l11.943665 0l12.119324 -12.119324m-12.119324 12.119324l0 181.39249" fill-rule="evenodd"/></g></svg>
