<svg id="Layer_1" data-name="Layer 1" xmlns="http://www.w3.org/2000/svg" xmlns:xlink="http://www.w3.org/1999/xlink" viewBox="0 0 500 477.03"><defs><style>.cls-1{fill:url(#linear-gradient);}.cls-15,.cls-17,.cls-2{fill:none;stroke:#000;stroke-miterlimit:10;}.cls-3{font-size:18px;font-family:MyriadPro-Regular, Myriad Pro;}.cls-4{letter-spacing:0.02em;}.cls-5{letter-spacing:-0.07em;}.cls-6{letter-spacing:-0.01em;}.cls-7{letter-spacing:0em;}.cls-8{letter-spacing:-0.01em;}.cls-9{letter-spacing:-0.01em;}.cls-10{letter-spacing:-0.05em;}.cls-11{letter-spacing:-0.05em;}.cls-12{letter-spacing:-0.02em;}.cls-13{letter-spacing:-0.01em;}.cls-14{letter-spacing:0em;}.cls-15{stroke-dasharray:12;}.cls-16{fill:url(#linear-gradient-2);}.cls-17{stroke-dasharray:11.85 11.85;}.cls-18{letter-spacing:0em;}.cls-19{letter-spacing:-0.01em;}.cls-20{letter-spacing:-0.01em;}.cls-21{letter-spacing:0em;}.cls-22{letter-spacing:-0.05em;}.cls-23{letter-spacing:-0.05em;}</style><linearGradient id="linear-gradient" x1="173.46" y1="55.03" x2="173.46" y2="404.15" gradientUnits="userSpaceOnUse"><stop offset="0" stop-color="#fff"/><stop offset="1" stop-color="gray"/></linearGradient><linearGradient id="linear-gradient-2" x1="430" y1="318.96" x2="85.47" y2="318.96" xlink:href="#linear-gradient"/></defs><title>figure_6</title><polyline class="cls-1" points="85.91 404.15 261 55.03 86 55.03"/><line class="cls-2" x1="85.91" y1="405.11" x2="85.91" y2="45.94"/><path d="M85.91,47.73l-3.6,2.19-.08-.12,2.33-5.87,1.35-6.14,1.35,6.14L89.6,49.8l-.06.12Z"/><line class="cls-2" x1="85.91" y1="405.11" x2="437.14" y2="405.11"/><path d="M435.34,405.11l-2.19-3.6.12-.08,5.88,2.33,6.14,1.35-6.14,1.35-5.87,2.33-.12-.06Z"/><text class="cls-3" transform="translate(129.19 462.46)">Buc<tspan class="cls-4" x="27.74" y="0">k</tspan><tspan class="cls-5" x="36.61" y="0">’</tspan><tspan x="39.04" y="0">s maximum willin</tspan><tspan class="cls-6" x="170.13" y="0">g</tspan><tspan class="cls-7" x="180.09" y="0">ness </tspan><tspan class="cls-8" x="217.17" y="0">t</tspan><tspan x="223.02" y="0">o p</tspan><tspan class="cls-9" x="246.96" y="0">a</tspan><tspan x="255.49" y="0">y</tspan></text><text class="cls-3" transform="translate(29.08 368.29) rotate(-90)">Chen<tspan class="cls-10" x="39.44" y="0">-</tspan><tspan class="cls-11" x="44.06" y="0">Y</tspan><tspan class="cls-12" x="52.85" y="0">u</tspan><tspan class="cls-5" x="62.37" y="0">’</tspan><tspan x="64.8" y="0">s maximum willin</tspan><tspan class="cls-8" x="195.89" y="0">g</tspan><tspan x="205.85" y="0">ness </tspan><tspan class="cls-8" x="242.92" y="0">t</tspan><tspan x="248.77" y="0">o p</tspan><tspan class="cls-13" x="272.71" y="0">a</tspan><tspan class="cls-14" x="281.25" y="0">y</tspan></text><path class="cls-15" d="M260.71,55.51,85.91,405.11Z"/><polyline class="cls-2" points="86.28 405.82 141.5 405.11 141.5 415.03"/><polyline class="cls-2" points="141.28 405.82 196.5 405.11 196.5 415.03"/><polyline class="cls-2" points="196.28 405.82 251.5 405.11 251.5 415.03"/><polyline class="cls-2" points="251.28 405.82 306.5 405.11 306.5 415.03"/><polyline class="cls-2" points="306.28 405.82 361.5 405.11 361.5 415.03"/><polyline class="cls-2" points="361.28 405.82 416.5 405.11 416.5 415.03"/><polyline class="cls-2" points="85.42 75.31 86.33 130.53 76 130.53"/><polyline class="cls-2" points="85.42 130.31 86.33 185.53 76 185.53"/><polyline class="cls-2" points="85.42 185.31 86.33 240.53 76 240.53"/><polyline class="cls-2" points="85.42 240.31 86.33 295.53 76 295.53"/><polyline class="cls-2" points="85.42 295.31 86.33 350.53 76 350.53"/><polyline class="cls-2" points="85.42 350.31 86.33 405.53 76 405.53"/><polyline class="cls-16" points="430 404.03 430 232.85 85.47 405.07"/><text class="cls-3" transform="translate(237.13 52.99)">C = 2B</text><text class="cls-3" transform="translate(439.98 206)">B = 2C</text><polyline class="cls-2" points="85.91 405.67 86.37 404.68 90.76 402.48"/><line class="cls-17" x1="101.36" y1="397.18" x2="456.42" y2="219.47"/><line class="cls-2" x1="461.72" y1="216.82" x2="467.09" y2="214.14"/><text class="cls-3" transform="translate(126.76 433.59)">$10</text><text class="cls-3" transform="translate(181.52 433.59)">$20</text><text class="cls-3" transform="translate(233.36 433.59)">$30</text><text class="cls-3" transform="translate(291.12 433.59)">$40</text><text class="cls-3" transform="translate(344.65 433.59)">$50</text><text class="cls-3" transform="translate(401.41 433.59)">$60</text><text class="cls-3" transform="translate(45.14 356.25)">$10</text><text class="cls-3" transform="translate(45.14 301.53)">$20</text><text class="cls-3" transform="translate(45.14 246.08)">$30</text><text class="cls-3" transform="translate(45.14 191.58)">$40</text><text class="cls-3" transform="translate(45.14 136.95)">$50</text><line class="cls-15" x1="86.37" y1="404.68" x2="422.74" y2="68.31"/><text class="cls-3" transform="translate(416.5 58.3)">B = C</text><text class="cls-3" transform="translate(245.46 122.15)">Buck sets p<tspan class="cls-18" x="83.28" y="0">r</tspan><tspan x="89.24" y="0">i</tspan><tspan class="cls-19" x="93.45" y="0">c</tspan><tspan class="cls-20" x="101.41" y="0">e</tspan><tspan class="cls-21" x="110.21" y="0">,</tspan><tspan x="0" y="21.6">both buy</tspan></text><text class="cls-3" transform="translate(352.26 181.09)">Chen<tspan class="cls-22" x="39.44" y="0">-</tspan><tspan class="cls-23" x="44.06" y="0">Y</tspan><tspan x="52.85" y="0">u sets p</tspan><tspan class="cls-18" x="109.87" y="0">r</tspan><tspan x="115.83" y="0">i</tspan><tspan class="cls-19" x="120.04" y="0">c</tspan><tspan class="cls-20" x="128" y="0">e</tspan><tspan x="136.8" y="0">,</tspan><tspan x="0" y="21.6">both buy</tspan></text><text class="cls-3" transform="translate(95.42 92.4)">Chen<tspan class="cls-22" x="39.44" y="0">-</tspan><tspan class="cls-23" x="44.06" y="0">Y</tspan><tspan x="52.85" y="0">u sets p</tspan><tspan class="cls-18" x="109.87" y="0">r</tspan><tspan x="115.83" y="0">i</tspan><tspan class="cls-19" x="120.04" y="0">c</tspan><tspan class="cls-20" x="128" y="0">e</tspan><tspan x="136.8" y="0">,</tspan><tspan x="0" y="21.6">only he bu</tspan><tspan class="cls-19" x="79.4" y="21.6">y</tspan><tspan x="87.77" y="21.6">s</tspan></text><text class="cls-3" transform="translate(357.88 337.88)">Buck sets p<tspan class="cls-18" x="83.28" y="0">r</tspan><tspan x="89.24" y="0">i</tspan><tspan class="cls-19" x="93.45" y="0">c</tspan><tspan class="cls-20" x="101.41" y="0">e</tspan><tspan class="cls-21" x="110.21" y="0">,</tspan><tspan x="0" y="21.6">only he bu</tspan><tspan class="cls-19" x="79.4" y="21.6">y</tspan><tspan x="87.77" y="21.6">s</tspan></text></svg>