<svg id="Layer_1" data-name="Layer 1" xmlns="http://www.w3.org/2000/svg" xmlns:xlink="http://www.w3.org/1999/xlink" viewBox="0 0 500 477.03"><defs><style>.cls-1{fill:url(#linear-gradient);}.cls-14,.cls-16,.cls-2{fill:none;stroke:#000;stroke-miterlimit:10;}.cls-3{font-size:18px;font-family:MyriadPro-Regular, Myriad Pro;}.cls-4{letter-spacing:0.02em;}.cls-5{letter-spacing:-0.07em;}.cls-6{letter-spacing:-0.01em;}.cls-7{letter-spacing:0em;}.cls-8{letter-spacing:-0.01em;}.cls-9{letter-spacing:-0.01em;}.cls-10{letter-spacing:0.01em;}.cls-11{letter-spacing:-0.07em;}.cls-12{letter-spacing:-0.01em;}.cls-13{letter-spacing:0em;}.cls-14{stroke-dasharray:12;}.cls-15{fill:url(#linear-gradient-2);}.cls-16{stroke-dasharray:11.85 11.85;}.cls-17{fill:#534741;}</style><linearGradient id="linear-gradient" x1="175.46" y1="57.03" x2="175.46" y2="406.15" gradientUnits="userSpaceOnUse"><stop offset="0" stop-color="#fff"/><stop offset="1" stop-color="gray"/></linearGradient><linearGradient id="linear-gradient-2" x1="432" y1="320.99" x2="87.47" y2="320.99" xlink:href="#linear-gradient"/></defs><title>figure_2</title><polyline class="cls-1" points="87.91 406.15 263 57.03 88 57.03"/><line class="cls-2" x1="87.91" y1="407.15" x2="87.91" y2="47.97"/><path d="M87.91,49.77,84.31,52l-.08-.12L86.56,46l1.35-6.14L89.26,46l2.33,5.88-.06.12Z"/><line class="cls-2" x1="87.91" y1="407.15" x2="439.14" y2="407.15"/><path d="M437.34,407.15l-2.19-3.6.12-.08,5.88,2.33,6.14,1.35-6.14,1.35-5.87,2.33-.12-.06Z"/><text class="cls-3" transform="translate(131.19 464.5)">Buc<tspan class="cls-4" x="27.74" y="0">k</tspan><tspan class="cls-5" x="36.61" y="0">’</tspan><tspan x="39.04" y="0">s maximum willin</tspan><tspan class="cls-6" x="170.13" y="0">g</tspan><tspan class="cls-7" x="180.09" y="0">ness </tspan><tspan class="cls-8" x="217.17" y="0">t</tspan><tspan x="223.02" y="0">o p</tspan><tspan class="cls-9" x="246.96" y="0">a</tspan><tspan x="255.49" y="0">y</tspan></text><text class="cls-3" transform="translate(36.08 367.32) rotate(-90)">Danie<tspan class="cls-10" x="43.88" y="0">l</tspan><tspan class="cls-11" x="48.24" y="0">’</tspan><tspan x="50.67" y="0">s maximum willin</tspan><tspan class="cls-8" x="181.76" y="0">g</tspan><tspan x="191.72" y="0">ness </tspan><tspan class="cls-6" x="228.79" y="0">t</tspan><tspan x="234.64" y="0">o p</tspan><tspan class="cls-12" x="258.58" y="0">a</tspan><tspan class="cls-13" x="267.12" y="0">y</tspan></text><path class="cls-14" d="M262.71,57.55,87.91,407.15Z"/><polyline class="cls-2" points="88.28 407.83 143.5 407.15 143.5 417.03"/><polyline class="cls-2" points="143.28 407.83 198.5 407.15 198.5 417.03"/><polyline class="cls-2" points="198.28 407.83 253.5 407.15 253.5 417.03"/><polyline class="cls-2" points="253.28 407.83 308.5 407.15 308.5 417.03"/><polyline class="cls-2" points="308.28 407.83 363.5 407.15 363.5 417.03"/><polyline class="cls-2" points="363.28 407.83 418.5 407.15 418.5 417.03"/><polyline class="cls-2" points="87.42 77.31 88.33 132.53 78 132.53"/><polyline class="cls-2" points="87.42 132.31 88.33 187.53 78 187.53"/><polyline class="cls-2" points="87.42 187.31 88.33 242.53 78 242.53"/><polyline class="cls-2" points="87.42 242.31 88.33 297.53 78 297.53"/><polyline class="cls-2" points="87.42 297.31 88.33 352.53 78 352.53"/><polyline class="cls-2" points="87.42 352.31 88.33 407.53 78 407.53"/><polyline class="cls-15" points="432 406.03 432 234.88 87.47 407.09"/><text class="cls-3" transform="translate(239.13 55.02)">C = 2B</text><text class="cls-3" transform="translate(441.98 208.04)">B = 2C</text><polyline class="cls-2" points="87.91 407.7 88.37 406.71 92.76 404.51"/><line class="cls-16" x1="103.36" y1="399.21" x2="458.42" y2="221.51"/><line class="cls-2" x1="463.72" y1="218.85" x2="469.09" y2="216.17"/><text class="cls-3" transform="translate(128.76 435.63)">$10</text><text class="cls-3" transform="translate(183.52 435.63)">$20</text><text class="cls-3" transform="translate(235.36 435.63)">$30</text><text class="cls-3" transform="translate(293.12 435.63)">$40</text><text class="cls-3" transform="translate(346.65 435.63)">$50</text><text class="cls-3" transform="translate(403.41 435.63)">$60</text><text class="cls-3" transform="translate(47.14 358.29)">$10</text><text class="cls-3" transform="translate(47.13 303.56)">$20</text><text class="cls-3" transform="translate(47.13 248.12)">$30</text><text class="cls-3" transform="translate(47.13 193.61)">$40</text><text class="cls-3" transform="translate(47.13 138.99)">$50</text><circle class="cls-17" cx="126.47" cy="273.95" r="4.54"/><text class="cls-3" transform="translate(113.12 261.35)">X</text><circle class="cls-17" cx="258.07" cy="287.77" r="4.54"/><text class="cls-3" transform="translate(268.91 275.9)">Y</text></svg>