<svg id="Layer_1" data-name="Layer 1" xmlns="http://www.w3.org/2000/svg" xmlns:xlink="http://www.w3.org/1999/xlink" viewBox="0 0 500 477.03"><defs><style>.cls-1{fill:url(#linear-gradient);}.cls-14,.cls-16,.cls-2{fill:none;stroke:#000;stroke-miterlimit:10;}.cls-3{font-size:18px;font-family:MyriadPro-Regular, Myriad Pro;}.cls-4{letter-spacing:0.02em;}.cls-5{letter-spacing:-0.07em;}.cls-6{letter-spacing:-0.01em;}.cls-7{letter-spacing:0em;}.cls-8{letter-spacing:-0.01em;}.cls-9{letter-spacing:-0.01em;}.cls-10{letter-spacing:0.01em;}.cls-11{letter-spacing:-0.07em;}.cls-12{letter-spacing:-0.01em;}.cls-13{letter-spacing:0em;}.cls-14{stroke-dasharray:12;}.cls-15{fill:url(#linear-gradient-2);}.cls-16{stroke-dasharray:11.85 11.85;}.cls-17{fill:#534741;}.cls-18{letter-spacing:-0.05em;}</style><linearGradient id="linear-gradient" x1="169.46" y1="55" x2="169.46" y2="404.11" gradientUnits="userSpaceOnUse"><stop offset="0" stop-color="#fff"/><stop offset="1" stop-color="gray"/></linearGradient><linearGradient id="linear-gradient-2" x1="426" y1="318.95" x2="81.47" y2="318.95" xlink:href="#linear-gradient"/></defs><title>figure_1</title><polyline class="cls-1" points="81.91 404.11 257 55 82 55"/><line class="cls-2" x1="81.91" y1="405.11" x2="81.91" y2="45.94"/><path d="M81.91,47.73l-3.6,2.19-.08-.12,2.33-5.87,1.35-6.14,1.35,6.14L85.6,49.8l-.06.12Z"/><line class="cls-2" x1="81.91" y1="405.11" x2="433.14" y2="405.11"/><path d="M431.34,405.11l-2.19-3.6.12-.08,5.88,2.33,6.14,1.35-6.14,1.35-5.87,2.33-.12-.06Z"/><text class="cls-3" transform="translate(125.19 462.46)">Buc<tspan class="cls-4" x="27.74" y="0">k</tspan><tspan class="cls-5" x="36.61" y="0">’</tspan><tspan x="39.04" y="0">s maximum willin</tspan><tspan class="cls-6" x="170.13" y="0">g</tspan><tspan class="cls-7" x="180.09" y="0">ness </tspan><tspan class="cls-8" x="217.17" y="0">t</tspan><tspan x="223.02" y="0">o p</tspan><tspan class="cls-9" x="246.96" y="0">a</tspan><tspan x="255.49" y="0">y</tspan></text><text class="cls-3" transform="translate(30.08 365.29) rotate(-90)">Danie<tspan class="cls-10" x="43.88" y="0">l</tspan><tspan class="cls-11" x="48.24" y="0">’</tspan><tspan x="50.67" y="0">s maximum willin</tspan><tspan class="cls-8" x="181.76" y="0">g</tspan><tspan x="191.72" y="0">ness </tspan><tspan class="cls-6" x="228.79" y="0">t</tspan><tspan x="234.64" y="0">o p</tspan><tspan class="cls-12" x="258.58" y="0">a</tspan><tspan class="cls-13" x="267.12" y="0">y</tspan></text><path class="cls-14" d="M256.71,55.51,81.91,405.11Z"/><polyline class="cls-2" points="82.28 405.8 137.5 405.11 137.5 415"/><polyline class="cls-2" points="137.28 405.8 192.5 405.11 192.5 415"/><polyline class="cls-2" points="192.28 405.8 247.5 405.11 247.5 415"/><polyline class="cls-2" points="247.28 405.8 302.5 405.11 302.5 415"/><polyline class="cls-2" points="302.28 405.8 357.5 405.11 357.5 415"/><polyline class="cls-2" points="357.28 405.8 412.5 405.11 412.5 415"/><polyline class="cls-2" points="81.42 75.28 82.33 130.5 72 130.5"/><polyline class="cls-2" points="81.42 130.28 82.33 185.5 72 185.5"/><polyline class="cls-2" points="81.42 185.28 82.33 240.5 72 240.5"/><polyline class="cls-2" points="81.42 240.28 82.33 295.5 72 295.5"/><polyline class="cls-2" points="81.42 295.28 82.33 350.5 72 350.5"/><polyline class="cls-2" points="81.42 350.28 82.33 405.5 72 405.5"/><polyline class="cls-15" points="426 404 426 232.85 81.47 405.06"/><text class="cls-3" transform="translate(233.13 52.99)">C = 2B</text><text class="cls-3" transform="translate(435.98 206)">B = 2C</text><polyline class="cls-2" points="81.91 405.67 82.37 404.68 86.76 402.48"/><line class="cls-16" x1="97.36" y1="397.18" x2="452.42" y2="219.47"/><line class="cls-2" x1="457.72" y1="216.82" x2="463.09" y2="214.14"/><text class="cls-3" transform="translate(122.76 433.59)">$10</text><text class="cls-3" transform="translate(177.52 433.59)">$20</text><text class="cls-3" transform="translate(229.36 433.59)">$30</text><text class="cls-3" transform="translate(287.12 433.59)">$40</text><text class="cls-3" transform="translate(340.65 433.59)">$50</text><text class="cls-3" transform="translate(397.41 433.59)">$60</text><text class="cls-3" transform="translate(41.14 356.25)">$10</text><text class="cls-3" transform="translate(41.13 301.53)">$20</text><text class="cls-3" transform="translate(41.13 246.08)">$30</text><text class="cls-3" transform="translate(41.13 191.58)">$40</text><text class="cls-3" transform="translate(41.13 136.95)">$50</text><circle class="cls-17" cx="120.47" cy="271.92" r="4.54"/><text class="cls-3" transform="translate(107.12 259.32)">X</text><circle class="cls-17" cx="252.07" cy="285.74" r="4.54"/><text class="cls-3" transform="translate(262.91 273.86)">Y</text><circle class="cls-17" cx="298.04" cy="160.83" r="4.54"/><text class="cls-3" transform="translate(305.77 174.45)">X +<tspan class="cls-18" x="24.82" y="0"> </tspan><tspan x="27.81" y="0">Y</tspan></text></svg>