<svg id="Layer_1" data-name="Layer 1" xmlns="http://www.w3.org/2000/svg" xmlns:xlink="http://www.w3.org/1999/xlink" viewBox="0 0 500 477.03"><defs><style>.cls-1{fill:url(#linear-gradient);}.cls-14,.cls-16,.cls-2{fill:none;stroke:#000;stroke-miterlimit:10;}.cls-3{font-size:18px;font-family:MyriadPro-Regular, Myriad Pro;}.cls-4{letter-spacing:0.02em;}.cls-5{letter-spacing:-0.07em;}.cls-6{letter-spacing:-0.01em;}.cls-7{letter-spacing:0em;}.cls-8{letter-spacing:-0.01em;}.cls-9{letter-spacing:-0.01em;}.cls-10{letter-spacing:0.01em;}.cls-11{letter-spacing:-0.07em;}.cls-12{letter-spacing:-0.01em;}.cls-13{letter-spacing:0em;}.cls-14{stroke-dasharray:12;}.cls-15{fill:url(#linear-gradient-2);}.cls-16{stroke-dasharray:11.85 11.85;}.cls-17{fill:#534741;}.cls-18{letter-spacing:-0.05em;}</style><linearGradient id="linear-gradient" x1="165.46" y1="56" x2="165.46" y2="405.11" gradientUnits="userSpaceOnUse"><stop offset="0" stop-color="#fff"/><stop offset="1" stop-color="gray"/></linearGradient><linearGradient id="linear-gradient-2" x1="422" y1="319.95" x2="77.47" y2="319.95" xlink:href="#linear-gradient"/></defs><title>figure_4</title><polyline class="cls-1" points="77.91 405.11 253 56 78 56"/><line class="cls-2" x1="77.91" y1="406.11" x2="77.91" y2="46.94"/><path d="M77.91,48.73l-3.6,2.19-.08-.12,2.33-5.87,1.35-6.14,1.35,6.14L81.6,50.8l-.06.12Z"/><line class="cls-2" x1="77.91" y1="406.11" x2="429.14" y2="406.11"/><path d="M427.34,406.11l-2.19-3.6.12-.08,5.88,2.33,6.14,1.35-6.14,1.35-5.87,2.33-.12-.06Z"/><text class="cls-3" transform="translate(121.19 463.46)">Buc<tspan class="cls-4" x="27.74" y="0">k</tspan><tspan class="cls-5" x="36.61" y="0">’</tspan><tspan x="39.04" y="0">s maximum willin</tspan><tspan class="cls-6" x="170.13" y="0">g</tspan><tspan class="cls-7" x="180.09" y="0">ness </tspan><tspan class="cls-8" x="217.17" y="0">t</tspan><tspan x="223.02" y="0">o p</tspan><tspan class="cls-9" x="246.96" y="0">a</tspan><tspan x="255.49" y="0">y</tspan></text><text class="cls-3" transform="translate(26.08 366.29) rotate(-90)">Danie<tspan class="cls-10" x="43.88" y="0">l</tspan><tspan class="cls-11" x="48.24" y="0">’</tspan><tspan x="50.67" y="0">s maximum willin</tspan><tspan class="cls-8" x="181.76" y="0">g</tspan><tspan x="191.72" y="0">ness </tspan><tspan class="cls-6" x="228.79" y="0">t</tspan><tspan x="234.64" y="0">o p</tspan><tspan class="cls-12" x="258.58" y="0">a</tspan><tspan class="cls-13" x="267.12" y="0">y</tspan></text><path class="cls-14" d="M252.71,56.51,77.91,406.11Z"/><polyline class="cls-2" points="78.28 406.8 133.5 406.11 133.5 416"/><polyline class="cls-2" points="133.28 406.8 188.5 406.11 188.5 416"/><polyline class="cls-2" points="188.28 406.8 243.5 406.11 243.5 416"/><polyline class="cls-2" points="243.28 406.8 298.5 406.11 298.5 416"/><polyline class="cls-2" points="298.28 406.8 353.5 406.11 353.5 416"/><polyline class="cls-2" points="353.28 406.8 408.5 406.11 408.5 416"/><polyline class="cls-2" points="77.42 76.28 78.33 131.5 68 131.5"/><polyline class="cls-2" points="77.42 131.28 78.33 186.5 68 186.5"/><polyline class="cls-2" points="77.42 186.28 78.33 241.5 68 241.5"/><polyline class="cls-2" points="77.42 241.28 78.33 296.5 68 296.5"/><polyline class="cls-2" points="77.42 296.28 78.33 351.5 68 351.5"/><polyline class="cls-2" points="77.42 351.28 78.33 406.5 68 406.5"/><polyline class="cls-15" points="422 405 422 233.85 77.47 406.06"/><text class="cls-3" transform="translate(229.13 53.99)">D = 2B</text><text class="cls-3" transform="translate(431.98 207)">B = 2D</text><polyline class="cls-2" points="77.91 406.67 78.37 405.68 82.76 403.48"/><line class="cls-16" x1="93.36" y1="398.18" x2="448.42" y2="220.47"/><line class="cls-2" x1="453.72" y1="217.82" x2="459.09" y2="215.14"/><text class="cls-3" transform="translate(118.76 434.59)">$10</text><text class="cls-3" transform="translate(173.52 434.59)">$20</text><text class="cls-3" transform="translate(225.36 434.59)">$30</text><text class="cls-3" transform="translate(283.12 434.59)">$40</text><text class="cls-3" transform="translate(336.65 434.59)">$50</text><text class="cls-3" transform="translate(393.41 434.59)">$60</text><text class="cls-3" transform="translate(37.14 357.25)">$10</text><text class="cls-3" transform="translate(37.13 302.53)">$20</text><text class="cls-3" transform="translate(37.13 247.08)">$30</text><text class="cls-3" transform="translate(37.13 192.58)">$40</text><text class="cls-3" transform="translate(37.13 137.95)">$50</text><circle class="cls-17" cx="134.4" cy="243.11" r="4.54"/><text class="cls-3" transform="translate(121.05 230.51)">X</text><circle class="cls-17" cx="244.67" cy="349.95" r="4.54"/><text class="cls-3" transform="translate(257.54 349.95)">Y</text><circle class="cls-17" cx="298.38" cy="187" r="4.54"/><text class="cls-3" transform="translate(277.12 175.62)">X +<tspan class="cls-18" x="24.82" y="0"> </tspan><tspan x="27.81" y="0">Y</tspan></text></svg>