<svg id="Layer_1" data-name="Layer 1" xmlns="http://www.w3.org/2000/svg" xmlns:xlink="http://www.w3.org/1999/xlink" viewBox="0 0 500 477.03"><defs><style>.cls-1{fill:url(#linear-gradient);}.cls-14,.cls-16,.cls-2{fill:none;stroke:#000;stroke-miterlimit:10;}.cls-3{font-size:18px;font-family:MyriadPro-Regular, Myriad Pro;}.cls-4{letter-spacing:0.02em;}.cls-5{letter-spacing:-0.07em;}.cls-6{letter-spacing:-0.01em;}.cls-7{letter-spacing:0em;}.cls-8{letter-spacing:-0.01em;}.cls-9{letter-spacing:-0.01em;}.cls-10{letter-spacing:0.01em;}.cls-11{letter-spacing:-0.07em;}.cls-12{letter-spacing:-0.01em;}.cls-13{letter-spacing:0em;}.cls-14{stroke-dasharray:12;}.cls-15{fill:url(#linear-gradient-2);}.cls-16{stroke-dasharray:11.85 11.85;}.cls-17{fill:#534741;}.cls-18{letter-spacing:-0.05em;}</style><linearGradient id="linear-gradient" x1="165.46" y1="53" x2="165.46" y2="402.11" gradientUnits="userSpaceOnUse"><stop offset="0" stop-color="#fff"/><stop offset="1" stop-color="gray"/></linearGradient><linearGradient id="linear-gradient-2" x1="422" y1="316.95" x2="77.47" y2="316.95" xlink:href="#linear-gradient"/></defs><title>figure_3</title><polyline class="cls-1" points="77.91 402.11 253 53 78 53"/><line class="cls-2" x1="77.91" y1="403.11" x2="77.91" y2="43.94"/><path d="M77.91,45.73l-3.6,2.19-.08-.12,2.33-5.87,1.35-6.14,1.35,6.14L81.6,47.8l-.06.12Z"/><line class="cls-2" x1="77.91" y1="403.11" x2="429.14" y2="403.11"/><path d="M427.34,403.11l-2.19-3.6.12-.08,5.88,2.33,6.14,1.35-6.14,1.35-5.87,2.33-.12-.06Z"/><text class="cls-3" transform="translate(121.19 460.46)">Buc<tspan class="cls-4" x="27.74" y="0">k</tspan><tspan class="cls-5" x="36.61" y="0">’</tspan><tspan x="39.04" y="0">s maximum willin</tspan><tspan class="cls-6" x="170.13" y="0">g</tspan><tspan class="cls-7" x="180.09" y="0">ness </tspan><tspan class="cls-8" x="217.17" y="0">t</tspan><tspan x="223.02" y="0">o p</tspan><tspan class="cls-9" x="246.96" y="0">a</tspan><tspan x="255.49" y="0">y</tspan></text><text class="cls-3" transform="translate(26.08 363.29) rotate(-90)">Danie<tspan class="cls-10" x="43.88" y="0">l</tspan><tspan class="cls-11" x="48.24" y="0">’</tspan><tspan x="50.67" y="0">s maximum willin</tspan><tspan class="cls-8" x="181.76" y="0">g</tspan><tspan x="191.72" y="0">ness </tspan><tspan class="cls-6" x="228.79" y="0">t</tspan><tspan x="234.64" y="0">o p</tspan><tspan class="cls-12" x="258.58" y="0">a</tspan><tspan class="cls-13" x="267.12" y="0">y</tspan></text><path class="cls-14" d="M252.71,53.51,77.91,403.11Z"/><polyline class="cls-2" points="78.28 403.8 133.5 403.11 133.5 413"/><polyline class="cls-2" points="133.28 403.8 188.5 403.11 188.5 413"/><polyline class="cls-2" points="188.28 403.8 243.5 403.11 243.5 413"/><polyline class="cls-2" points="243.28 403.8 298.5 403.11 298.5 413"/><polyline class="cls-2" points="298.28 403.8 353.5 403.11 353.5 413"/><polyline class="cls-2" points="353.28 403.8 408.5 403.11 408.5 413"/><polyline class="cls-2" points="77.42 73.28 78.33 128.5 68 128.5"/><polyline class="cls-2" points="77.42 128.28 78.33 183.5 68 183.5"/><polyline class="cls-2" points="77.42 183.28 78.33 238.5 68 238.5"/><polyline class="cls-2" points="77.42 238.28 78.33 293.5 68 293.5"/><polyline class="cls-2" points="77.42 293.28 78.33 348.5 68 348.5"/><polyline class="cls-2" points="77.42 348.28 78.33 403.5 68 403.5"/><polyline class="cls-15" points="422 402 422 230.85 77.47 403.06"/><text class="cls-3" transform="translate(229.13 50.99)">D = 2B</text><text class="cls-3" transform="translate(431.98 204)">B = 2D</text><polyline class="cls-2" points="77.91 403.67 78.37 402.68 82.76 400.48"/><line class="cls-16" x1="93.36" y1="395.18" x2="448.42" y2="217.47"/><line class="cls-2" x1="453.72" y1="214.82" x2="459.09" y2="212.14"/><text class="cls-3" transform="translate(118.76 431.59)">$10</text><text class="cls-3" transform="translate(173.52 431.59)">$20</text><text class="cls-3" transform="translate(225.36 431.59)">$30</text><text class="cls-3" transform="translate(283.12 431.59)">$40</text><text class="cls-3" transform="translate(336.65 431.59)">$50</text><text class="cls-3" transform="translate(393.41 431.59)">$60</text><text class="cls-3" transform="translate(37.14 354.25)">$10</text><text class="cls-3" transform="translate(37.13 299.53)">$20</text><text class="cls-3" transform="translate(37.13 244.08)">$30</text><text class="cls-3" transform="translate(37.13 189.58)">$40</text><text class="cls-3" transform="translate(37.13 134.95)">$50</text><circle class="cls-17" cx="98.58" cy="238.88" r="4.54"/><text class="cls-3" transform="translate(85.23 226.28)">X</text><circle class="cls-17" cx="161.74" cy="293.95" r="4.54"/><text class="cls-3" transform="translate(172.58 282.07)">Y</text><circle class="cls-17" cx="187.55" cy="128.5" r="4.54"/><text class="cls-3" transform="translate(166.28 117.12)">X +<tspan class="cls-18" x="24.82" y="0"> </tspan><tspan x="27.81" y="0">Y</tspan></text></svg>