<svg id="Layer_1" data-name="Layer 1" xmlns="http://www.w3.org/2000/svg" xmlns:xlink="http://www.w3.org/1999/xlink" viewBox="0 0 500 477.03"><defs><style>.cls-1{fill:url(#linear-gradient);}.cls-15,.cls-17,.cls-2{fill:none;stroke:#000;stroke-miterlimit:10;}.cls-3{font-size:18px;font-family:MyriadPro-Regular, Myriad Pro;}.cls-4{letter-spacing:0.02em;}.cls-5{letter-spacing:-0.07em;}.cls-6{letter-spacing:-0.01em;}.cls-7{letter-spacing:0em;}.cls-8{letter-spacing:-0.01em;}.cls-9{letter-spacing:-0.01em;}.cls-10{letter-spacing:-0.05em;}.cls-11{letter-spacing:-0.05em;}.cls-12{letter-spacing:-0.02em;}.cls-13{letter-spacing:-0.01em;}.cls-14{letter-spacing:0em;}.cls-15{stroke-dasharray:12;}.cls-16{fill:url(#linear-gradient-2);}.cls-17{stroke-dasharray:11.85 11.85;}.cls-18{fill:#534741;}.cls-19{letter-spacing:-0.05em;}</style><linearGradient id="linear-gradient" x1="172.46" y1="55" x2="172.46" y2="404.11" gradientUnits="userSpaceOnUse"><stop offset="0" stop-color="#fff"/><stop offset="1" stop-color="gray"/></linearGradient><linearGradient id="linear-gradient-2" x1="429" y1="318.95" x2="84.47" y2="318.95" xlink:href="#linear-gradient"/></defs><title>three_goods</title><polyline class="cls-1" points="84.91 404.11 260 55 85 55"/><line class="cls-2" x1="84.91" y1="405.11" x2="84.91" y2="45.94"/><path d="M84.91,47.73l-3.6,2.19-.08-.12,2.33-5.87,1.35-6.14,1.35,6.14L88.6,49.8l-.06.12Z"/><line class="cls-2" x1="84.91" y1="405.11" x2="436.14" y2="405.11"/><path d="M434.34,405.11l-2.19-3.6.12-.08,5.88,2.33,6.14,1.35-6.14,1.35-5.87,2.33-.12-.06Z"/><text class="cls-3" transform="translate(128.19 462.46)">Buc<tspan class="cls-4" x="27.74" y="0">k</tspan><tspan class="cls-5" x="36.61" y="0">’</tspan><tspan x="39.04" y="0">s maximum willin</tspan><tspan class="cls-6" x="170.13" y="0">g</tspan><tspan class="cls-7" x="180.09" y="0">ness </tspan><tspan class="cls-8" x="217.17" y="0">t</tspan><tspan x="223.02" y="0">o p</tspan><tspan class="cls-9" x="246.96" y="0">a</tspan><tspan x="255.49" y="0">y</tspan></text><text class="cls-3" transform="translate(33.08 365.29) rotate(-90)">Chen<tspan class="cls-10" x="39.44" y="0">-</tspan><tspan class="cls-11" x="44.06" y="0">Y</tspan><tspan class="cls-12" x="52.85" y="0">u</tspan><tspan class="cls-5" x="62.37" y="0">’</tspan><tspan x="64.8" y="0">s maximum willin</tspan><tspan class="cls-8" x="195.89" y="0">g</tspan><tspan x="205.85" y="0">ness </tspan><tspan class="cls-8" x="242.92" y="0">t</tspan><tspan x="248.77" y="0">o p</tspan><tspan class="cls-13" x="272.71" y="0">a</tspan><tspan class="cls-14" x="281.25" y="0">y</tspan></text><path class="cls-15" d="M259.71,55.51,84.91,405.11Z"/><polyline class="cls-2" points="85.28 405.8 140.5 405.11 140.5 415"/><polyline class="cls-2" points="140.28 405.8 195.5 405.11 195.5 415"/><polyline class="cls-2" points="195.28 405.8 250.5 405.11 250.5 415"/><polyline class="cls-2" points="250.28 405.8 305.5 405.11 305.5 415"/><polyline class="cls-2" points="305.28 405.8 360.5 405.11 360.5 415"/><polyline class="cls-2" points="360.28 405.8 415.5 405.11 415.5 415"/><polyline class="cls-2" points="84.42 75.28 85.33 130.5 75 130.5"/><polyline class="cls-2" points="84.42 130.28 85.33 185.5 75 185.5"/><polyline class="cls-2" points="84.42 185.28 85.33 240.5 75 240.5"/><polyline class="cls-2" points="84.42 240.28 85.33 295.5 75 295.5"/><polyline class="cls-2" points="84.42 295.28 85.33 350.5 75 350.5"/><polyline class="cls-2" points="84.42 350.28 85.33 405.5 75 405.5"/><polyline class="cls-16" points="429 404 429 232.85 84.47 405.06"/><text class="cls-3" transform="translate(236.13 52.99)">C = 2B</text><text class="cls-3" transform="translate(438.98 206)">B = 2C</text><polyline class="cls-2" points="84.91 405.67 85.37 404.68 89.76 402.48"/><line class="cls-17" x1="100.36" y1="397.18" x2="455.42" y2="219.47"/><line class="cls-2" x1="460.72" y1="216.82" x2="466.09" y2="214.14"/><text class="cls-3" transform="translate(125.76 433.59)">$10</text><text class="cls-3" transform="translate(180.52 433.59)">$20</text><text class="cls-3" transform="translate(232.36 433.59)">$30</text><text class="cls-3" transform="translate(290.12 433.59)">$40</text><text class="cls-3" transform="translate(343.65 433.59)">$50</text><text class="cls-3" transform="translate(400.41 433.59)">$60</text><text class="cls-3" transform="translate(44.14 356.25)">$10</text><text class="cls-3" transform="translate(44.13 301.53)">$20</text><text class="cls-3" transform="translate(44.13 246.08)">$30</text><text class="cls-3" transform="translate(44.13 191.58)">$40</text><text class="cls-3" transform="translate(44.13 136.95)">$50</text><circle class="cls-18" cx="105.3" cy="295.43" r="4.54"/><text class="cls-3" transform="translate(91.95 282.83)">X</text><circle class="cls-18" cx="168.74" cy="295.95" r="4.54"/><text class="cls-3" transform="translate(169.58 284.07)">Y</text><circle class="cls-18" cx="193.58" cy="184.75" r="4.54"/><text class="cls-3" transform="translate(201.31 198.37)">X +<tspan class="cls-19" x="24.82" y="0"> </tspan><tspan x="27.81" y="0">Y</tspan></text><circle class="cls-18" cx="250.35" cy="297.07" r="4.54"/><text class="cls-3" transform="translate(261.19 285.2)">Z</text><circle class="cls-18" cx="335.78" cy="185.87" r="4.54"/><text class="cls-3" transform="translate(314.51 174.5)">Y + Z</text><circle class="cls-18" cx="368.64" cy="79.66" r="4.54"/><text class="cls-3" transform="translate(336.37 68.28)">X +<tspan class="cls-19" x="24.82" y="0"> </tspan><tspan x="27.81" y="0">Y + Z</tspan></text><circle class="cls-18" cx="282.05" cy="185.75" r="4.54"/><text class="cls-3" transform="translate(264.78 174.37)">X + Z</text></svg>